<?xml version="1.0" standalone="no"?>
<!DOCTYPE svg PUBLIC "-//W3C//DTD SVG 1.1//EN" "http://www.w3.org/Graphics/SVG/1.1/DTD/svg11.dtd" >
<svg xmlns="http://www.w3.org/2000/svg" xmlns:xlink="http://www.w3.org/1999/xlink" version="1.1">
<metadata>
Created by FontForge 20161003 at Sun Dec  2 19:04:37 2018
 By www-data
FLOTTA (c) 7NTypes. 2018. All Rights Reserved
</metadata>
<defs>
<font id="FLOTTAFontbySitujuh_7NTypes" horiz-adv-x="900" >
  <font-face 
    font-family="FLOTTAFontbySitujuh_7NTypes"
    font-weight="400"
    font-stretch="normal"
    units-per-em="2048"
    panose-1="2 0 5 0 0 0 0 0 0 0"
    ascent="1638"
    descent="-410"
    x-height="1054"
    cap-height="1240"
    bbox="-161.452 -528 6951 1691"
    underline-thickness="150"
    underline-position="-442"
    unicode-range="U+001D-E00D"
  />
<missing-glyph horiz-adv-x="1024" 
 />
    <glyph glyph-name="uniE007" unicode="TT" horiz-adv-x="1545" 
d="M1143 -170q-53 0 -93 32.5t-45 94.5q-21 263 -21 581q0 284 21 548q2 26 3 30q-108 -10 -212 -59q-17 -9 -36 -9q-43 0 -66 34q-8 13 -8 25q0 33 36 50q177 84 427 84q246 0 418 -73q40 -16 40 -50q0 -12 -7 -24q-20 -35 -67 -35q-17 0 -34 7q-108 44 -228 52q4 -8 4 -38
q0 -53 -5 -133q-12 -177 -12 -408q0 -331 12 -494q3 -41 3 -80q0 -52 -33 -93.5t-97 -41.5zM423 -399q-58 0 -104.5 36.5t-52.5 113.5q-28 335 -28 833q0 442 27 779q3 33 15 58q-191 -17 -334 -82q-17 -8 -34 -8q-40 0 -63 32q-9 14 -9 28q0 35 37 52q229 105 554 105
q320 0 545 -91q39 -16 39 -52q0 -13 -8 -27q-20 -33 -64 -33q-15 0 -32 6q-149 59 -353 73q15 -31 15 -68q0 -67 -7 -170q-16 -227 -16 -600q0 -513 16 -725q4 -50 4 -99q0 -67 -39 -114t-108 -47z" />
    <glyph glyph-name="uniE008" unicode="tt" horiz-adv-x="1563" 
d="M1187 -399q-58 0 -104.5 36.5t-52.5 113.5q-28 335 -28 833q0 442 27 779q3 33 15 58q-191 -17 -334 -82q-17 -8 -34 -8q-40 0 -63 32q-9 14 -9 28q0 35 37 52q229 105 554 105q320 0 544 -91q40 -16 40 -52q0 -13 -8 -27q-20 -33 -64 -33q-16 0 -32 6q-149 59 -353 73
q15 -31 15 -68q0 -67 -7 -170q-16 -227 -16 -600q0 -513 16 -725q4 -50 4 -99q0 -67 -39 -114t-108 -47zM421 -170q-53 0 -93 32.5t-45 94.5q-21 263 -21 581q0 284 21 548q2 26 3 30q-108 -10 -212 -59q-17 -9 -36 -9q-43 0 -66 34q-8 13 -8 25q0 33 36 50q177 84 427 84
q245 0 418 -73q40 -16 40 -50q0 -12 -7 -24q-20 -35 -67 -35q-17 0 -34 7q-108 44 -228 52q4 -8 4 -38q0 -53 -5 -133q-12 -177 -12 -408q0 -331 12 -494q3 -41 3 -80q0 -52 -33 -93.5t-97 -41.5z" />
    <glyph glyph-name="uniE009" unicode="LL" horiz-adv-x="1346" 
d="M754 -464q-250 0 -418 26q-67 10 -115 85q-54 84 -63 238q-8 196 -8 393q0 322 28 735q4 87 19 202q20 152 88 208q39 31 106 31q33 0 62.5 -8.5t47 -41.5t17.5 -70q0 -52 -7.5 -106t-13.5 -129q-36 -440 -36 -836q0 -277 19 -539q250 -30 407 -30q159 0 356 31
q5 1 10.5 3t11.5 2q36 0 52 -36q6 -15 6 -30q0 -45 -31 -58q-171 -70 -538 -70zM1008 -86q-86 0 -133.5 27t-64.5 94q-29 114 -29 512q0 726 84 772q46 26 101 26q64 0 109 -32q42 -29 42 -81q0 -23 -3 -50q-23 -205 -37 -697q-4 -150 -4 -253q0 -133 7 -185q90 4 157 4
q89 0 89 -58q0 -67 -70 -67q-61 0 -125 -6t-123 -6z" />
    <glyph glyph-name="uniE00A" unicode="TL" horiz-adv-x="1463" 
d="M1726 -454q-12 0 -23 5q-94 39 -319 39q-84 0 -177 -13.5t-177 -13.5q-61 0 -114 84.5t-63 238.5q-8 196 -8 392q0 426 37 705q20 152 87 208q39 31 106 31q33 0 62.5 -8.5t47 -41.5t17.5 -70q0 -52 -7 -106q-20 -141 -35 -468q-4 -132 -4 -264q0 -278 18 -540
q95 7 183 7q426 0 426 -119q0 -15 -6 -30q-16 -36 -51 -36zM423 -398q-58 0 -104.5 36.5t-52.5 112.5q-28 336 -28 833q0 442 27 779q3 33 15 58q-191 -17 -334 -82q-17 -8 -34 -8q-40 0 -63 32q-9 14 -9 28q0 35 37 52q229 105 554 105q320 0 544 -91q39 -16 39 -52
q0 -13 -8 -27q-19 -33 -64 -33q-15 0 -32 6q-149 59 -352 73q15 -31 15 -68q0 -67 -7 -170q-16 -227 -16 -600q0 -513 16 -725q4 -49 4 -99q0 -66 -39 -113t-108 -47z" />
    <glyph glyph-name="uniE00C" unicode="LT" horiz-adv-x="1333" 
d="M1032 -454q35 0 51 36q6 15 6 30q0 119 -427 119q-88 0 -182 -7q-19 262 -19 540q0 505 30 804q4 41 4 60q0 51 -43 80q-46 32 -111 32q-56 0 -103 -25q-33 -22 -51 -126.5t-26 -250t-9.5 -287.5t-1.5 -237q1 -240 8 -428q10 -154 63 -238.5t115 -84.5q83 0 176.5 13.5
t176.5 13.5q226 0 320 -39q11 -5 23 -5zM950 -160q69 0 112 46q39 42 39 102q0 35 -4 76q-15 149 -15 390q0 455 18 732q8 103 8 170q0 37 -15 68q203 -14 352 -73q17 -6 32 -6q44 0 64 33q8 14 8 27q0 36 -40 52q-224 91 -543 91q-325 0 -554 -105q-37 -17 -37 -52
q0 -14 9 -28q23 -32 63 -32q17 0 34 8q143 65 334 82q-12 -25 -15 -58q-30 -383 -30 -920q0 -231 23 -469q6 -69 52.5 -101.5t104.5 -32.5z" />
    <glyph glyph-name="uniE00D" unicode="FL" horiz-adv-x="1480" 
d="M1743 -454q-11 0 -22 5q-94 39 -320 39q-83 0 -176.5 -13.5t-176.5 -13.5q-62 0 -115.5 84t-62.5 238q-7 207 -7 514q0 750 85 796q47 25 103 25q65 0 111 -32q43 -29 43 -80q0 -24 -3 -51q-29 -262 -29 -793q0 -278 19 -541q94 8 182 8q426 0 426 -119q0 -15 -5 -30
q-16 -36 -52 -36zM330 -398q-42 0 -81 22q-101 56 -106 618l-1 173q-18 -7 -31 -7q-15 0 -25 8q-16 13 -16 33q0 37 72 72q3 397 27 740q20 287 358 287q141 0 317 -22q317 -41 317 -121q0 -14 -7 -27q-18 -33 -56 -33q-14 0 -28 6q-94 34 -233.5 50.5t-220.5 16.5
q-125 0 -138 -197q-23 -343 -23 -625q40 3 81 3q201 0 201 -67q0 -28 -21 -41q-15 -9 -27 -9q-6 0 -13 2q-66 17 -142 17q-41 0 -80 -4q0 -412 30 -685q4 -37 4 -56q0 -36 -16 -68q-32 -64 -76 -75t-66 -11z" />
    <glyph glyph-name=".notdef" horiz-adv-x="1024" 
 />
    <glyph glyph-name=".null" horiz-adv-x="0" 
 />
    <glyph glyph-name=".null" horiz-adv-x="0" 
 />
    <glyph glyph-name="nonmarkingreturn" horiz-adv-x="508" 
 />
    <glyph glyph-name="space" unicode=" " horiz-adv-x="508" 
 />
    <glyph glyph-name="space" unicode="&#xa0;" horiz-adv-x="508" 
 />
    <glyph glyph-name="exclam" unicode="!" horiz-adv-x="501" 
d="M240 290q-30 0 -50.5 16t-20.5 70q0 132 -19 292.5t-40 310.5q-37 264 -37 340q0 148 186 148q47 0 83.5 -8.5t58 -41.5t21.5 -104q0 -118 -15 -236.5t-34 -236.5t-33.5 -236t-14.5 -236q0 -42 -27.5 -60t-57.5 -18zM247 -9q-47 0 -81 33.5t-34 81.5t34 81.5t81 33.5
q48 0 81.5 -33.5t33.5 -81.5t-33.5 -81.5t-81.5 -33.5z" />
    <glyph glyph-name="quotedbl" unicode="&#x22;" horiz-adv-x="691" 
d="M167 494q-21 0 -35.5 7t-14.5 32q0 88 -41 277q-26 121 -26 156q0 43 27.5 68.5t102.5 25.5q65 0 89.5 -24t24.5 -73q0 -78 -34 -216.5t-34 -217.5q0 -19 -19 -27t-40 -8zM464 494q-21 0 -35.5 7t-14.5 32q0 88 -41 277q-26 121 -26 156q0 43 27.5 68.5t102.5 25.5
q65 0 89.5 -24t24.5 -73q0 -78 -34 -216.5t-34 -217.5q0 -19 -19 -27t-40 -8z" />
    <glyph glyph-name="numbersign" unicode="#" horiz-adv-x="1076" 
d="M285 523q23 52 47 110h-254q-19 0 -33 14t-14 34q0 19 14 33t33 14h295q86 198 195 451q11 21 37 21q32 0 53.5 -16t21.5 -32q0 -4 -189 -424h165q86 198 195 451q11 21 37 21q32 0 53.5 -16t21.5 -32q0 -4 -189 -424h215q19 0 33 -14t14 -33q0 -20 -14 -34t-33 -14h-258
q-24 -52 -50 -110h308q19 0 33 -14t14 -33q0 -20 -14 -34t-33 -14h-350q-91 -201 -207 -457q-8 -16 -25 -16q-27 0 -47 19q-15 14 -15 27q0 4 182 427h-171q-91 -201 -207 -457q-8 -16 -25 -16q-27 0 -47 19q-15 14 -15 27q0 4 182 427h-166q-19 0 -33 14t-14 34q0 19 14 33
t33 14h207zM448 633q-24 -52 -50 -110h170q23 52 47 110h-167z" />
    <glyph glyph-name="dollar" unicode="$" horiz-adv-x="876" 
d="M440 -250q-48 0 -48 31v206q-146 3 -228 70q-86 69 -86 166q0 58 17 102.5t56 44.5q43 0 43 -50q0 -42 17 -90q39 -118 167 -118q77 0 106 47.5t29 129.5q0 78 -26 119t-68.5 79.5t-153.5 141t-152 177t-41 174.5q0 122 88 208q83 81 232 96v188q0 28 50 28q45 0 45 -28
v-186q120 -5 199 -68q86 -70 86 -167q0 -58 -16.5 -101.5t-54.5 -45.5q-45 0 -45 50q0 42 -17 90q-39 118 -147 118q-54 0 -87.5 -22t-48.5 -55.5t-15 -69.5q0 -72 33 -127t85 -102t162.5 -142.5t147.5 -168.5t37 -167q0 -92 -50 -162q-94 -133 -269 -154v-211
q0 -31 -47 -31z" />
    <glyph glyph-name="percent" unicode="%" horiz-adv-x="767" 
d="M636 174q0 52 -12 86q-13 36 -38 36t-37 -35.5t-12 -86.5q0 -35 8 -71q13 -54 42 -54q28 0 40 52q9 38 9 73zM268 1076q0 52 -12 86q-13 36 -38 36t-37 -35.5t-12 -86.5q0 -35 8 -71q13 -54 42 -54q28 0 40 52q9 38 9 73zM716 175q0 -20 -2 -47t-10 -55.5t-24 -52.5
t-44 -39t-71 -15t-70.5 15t-44 39.5t-24 52.5t-10 55t-2.5 47q0 19 2.5 46t10 55t24 52.5t44 39.5t69.5 15q43 0 71 -15t44.5 -39t24.5 -52t10 -55.5t2 -46.5zM193 -34q-28 0 -47 14.5t-19 27.5q0 34 397 1270q8 26 46 26q25 0 46.5 -14t21.5 -31q0 -53 -422 -1275
q-6 -18 -23 -18zM348 1077q0 -20 -2 -47t-10 -55.5t-24 -52.5t-44 -39t-71 -15t-70.5 15t-44 39.5t-24 52.5t-10 55t-2.5 47q0 19 2.5 46t10 55t24 52.5t44 39.5t69.5 15q43 0 71 -15t44.5 -39t24.5 -52t10 -55.5t2 -46.5z" />
    <glyph glyph-name="ampersand" unicode="&#x26;" horiz-adv-x="946" 
d="M253 -17q-107 0 -165.5 61.5t-58.5 170.5q0 169 246 370q-97 208 -97 387q0 141 82.5 226t220.5 85q84 0 167 -63q99 -75 99 -222q0 -178 -251 -372q58 -131 129 -236q73 85 129 174q38 60 81 60q16 0 33 -9q32 -17 32 -49q0 -31 -26 -73q-66 -111 -159 -220
q50 -57 114 -119q40 -38 40 -76q0 -26 -21 -51q-25 -31 -55 -31q-32 0 -70 33q-71 59 -130 116q-179 -162 -340 -162zM455 731q175 158 175 267q0 78 -32.5 115.5t-78.5 37.5q-51 0 -79 -45t-28 -134q0 -111 43 -241zM253 110q95 0 240 138q-93 104 -171 246
q-190 -160 -190 -279q0 -47 24 -76t97 -29z" />
    <glyph glyph-name="quotesingle" unicode="'" horiz-adv-x="394" 
d="M167 494q-21 0 -35.5 7t-14.5 32q0 88 -41 277q-26 121 -26 156q0 43 27.5 68.5t102.5 25.5q65 0 89.5 -24t24.5 -73q0 -78 -34 -216.5t-34 -217.5q0 -19 -19 -27t-40 -8z" />
    <glyph glyph-name="parenleft" unicode="(" horiz-adv-x="524" 
d="M451 -197q-21 0 -53 32q-153 156 -235.5 363t-82.5 437t82.5 437t235.5 363q32 32 53 32q18 0 28 -12t10 -30q0 -21 -27 -70q-148 -265 -148 -720q0 -263 56 -486q32 -128 92 -235q27 -48 27 -69q0 -18 -10 -30t-28 -12z" />
    <glyph glyph-name="parenright" unicode=")" horiz-adv-x="551" 
d="M87 -197q-17 0 -27 12t-10 30q0 21 27 69q60 107 92 235q56 223 56 486q0 455 -148 720q-27 49 -27 70q0 18 10 30t27 12q22 0 54 -32q153 -156 235.5 -363t82.5 -437t-82.5 -437t-235.5 -363q-32 -32 -54 -32z" />
    <glyph glyph-name="asterisk" unicode="*" horiz-adv-x="509" 
d="M228 822q-30 0 -30 40v216l-142 -81q-10 -6 -20 -6q-23 0 -43 33q-4 8 -4 16q0 17 24 31l142 82l-101 60q-20 11 -20 30q0 16 13 37q8 15 23 15q11 0 26 -9l102 -58v164q0 40 55 40q30 0 30 -40v-165l142 82q11 6 21 6q23 0 42 -33q5 -8 5 -16q0 -17 -24 -31l-143 -82
l181 -104q20 -11 20 -31q0 -16 -12 -37q-9 -15 -24 -15q-12 0 -27 9l-181 104v-217q0 -40 -55 -40z" />
    <glyph glyph-name="plus" unicode="+" 
d="M754 521h-608q-46 0 -46 34q0 61 46 61h608q46 0 46 -34q0 -61 -46 -61zM403 863q0 45 61 45q34 0 34 -45v-588q0 -45 -61 -45q-34 0 -34 45v588z" />
    <glyph glyph-name="comma" unicode="," horiz-adv-x="249" 
d="M5 -343q-16 0 -33 9.5t-17 27.5q0 16 39 70q85 117 85 200q0 26 -35.5 60t-35.5 82t34 81.5t81 33.5q48 0 81.5 -33.5t33.5 -91.5q0 -181 -189 -415q-19 -24 -44 -24z" />
    <glyph glyph-name="hyphen" unicode="-" horiz-adv-x="800" 
d="M660 505h-520q-40 0 -40 34q0 61 40 61h520q40 0 40 -34q0 -61 -40 -61z" />
    <glyph glyph-name="hyphen" unicode="&#xad;" horiz-adv-x="800" 
d="M660 505h-520q-40 0 -40 34q0 61 40 61h520q40 0 40 -34q0 -61 -40 -61z" />
    <glyph glyph-name="period" unicode="." horiz-adv-x="280" 
d="M165 -9q-48 0 -81.5 33.5t-33.5 81.5t33.5 81.5t81.5 33.5t81.5 -33.5t33.5 -81.5t-33.5 -81.5t-81.5 -33.5z" />
    <glyph glyph-name="slash" unicode="/" horiz-adv-x="499" 
d="M64 -34q-28 0 -47 14.5t-19 27.5q0 34 397 1270q8 26 46 26q25 0 46.5 -14t21.5 -31q0 -53 -422 -1275q-6 -18 -23 -18z" />
    <glyph glyph-name="zero" unicode="0" horiz-adv-x="796" 
d="M462 105q76 0 109 222q24 159 24 309q0 219 -33 364q-33 151 -102 151q-66 0 -98.5 -150t-32.5 -365q0 -151 22 -300q33 -228 111 -231zM409 -15q-85 0 -140.5 47.5t-88 122.5t-48 163t-20 172t-4.5 145t4.5 145t20 171.5t48 163t87.5 123t139 47.5q86 0 142.5 -47
t89.5 -122t48.5 -162.5t20 -172t4.5 -146.5t-4 -146.5t-19.5 -172t-48.5 -162.5t-89 -122t-142 -47z" />
    <glyph glyph-name="one" unicode="1" horiz-adv-x="606" 
d="M377 -15q-51 0 -86 33t-35 87v984l-138 -129q-22 -20 -48 -20q-6 0 -11 1q-32 6 -36 24t-4 23q0 28 28 55l180 175q33 33 56.5 47t40 17t29.5 3q29 0 60.5 -14t54 -44.5t22.5 -80.5v-1022q0 -49 -16.5 -80t-42 -45t-54.5 -14z" />
    <glyph glyph-name="two" unicode="2" horiz-adv-x="798" 
d="M137 -2q-73 0 -73 47q0 110 122 290q39 59 86 135q190 307 190 502q0 79 -13 121q-21 65 -91 65q-59 0 -95 -34.5t-52 -82.5t-16 -90q0 -21 -9.5 -47t-36.5 -26q-71 1 -71 123q0 124 86 203t222 79q188 0 274 -104q71 -86 71 -226q0 -113 -48 -219t-118.5 -202.5
t-143.5 -182.5q-109 -128 -165 -231q160 26 227 26q30 0 92 -2q156 -7 156 -98q0 -25 -12 -45q-15 -25 -43 -25q-11 0 -23 5q-48 20 -148 20q-38 0 -368 -1z" />
    <glyph glyph-name="three" unicode="3" horiz-adv-x="726" 
d="M306 -2q-62 0 -115.5 21t-86 63t-32.5 104q0 36 18 71.5t51 35.5q34 0 34 -56q0 -44 29 -78.5t71 -34.5q46 0 82.5 32t57.5 83.5t21 108.5q0 50 -12.5 95.5t-47.5 89t-99 89.5q-22 16 -22 45q0 40 26 61q60 47 93 133.5t33 164.5q0 68 -23 97.5t-54 29.5
q-56 0 -98.5 -57.5t-42.5 -144.5q0 -21 -9.5 -47t-35.5 -26q-72 1 -72 123q0 146 99 220q83 62 197 62q78 0 139.5 -28.5t97.5 -85t36 -143.5q0 -68 -29 -135t-75 -121.5t-99 -88.5q110 -61 163.5 -155t53.5 -196q0 -114 -52 -187.5t-132 -109t-165 -35.5z" />
    <glyph glyph-name="four" unicode="4" horiz-adv-x="806" 
d="M546 -13q-51 0 -86 33t-35 87v194l-53 1q-108 0 -203 -13q-27 -3 -50 -3q-70 0 -71 44q0 53 34.5 162.5t92 244t123 259t125 206t97.5 81.5q78 0 108.5 -36t30.5 -132v-717q47 -9 76.5 -24.5t29.5 -46.5q0 -13 -6 -28q-16 -39 -51 -39q-11 0 -22.5 5.5t-26.5 10.5v-150
q0 -49 -16.5 -80t-42 -45t-54.5 -14zM204 404q49 4 81 8q61 6 109 6h31v554q-58 -86 -106 -217q-53 -145 -115 -351z" />
    <glyph glyph-name="five" unicode="5" horiz-adv-x="725" 
d="M312 -2q-62 0 -115 21t-85.5 63t-32.5 104q0 36 18 71.5t51 35.5q34 0 34 -56q0 -44 29 -78.5t70 -34.5q46 0 82.5 38t57.5 95t21 115q0 133 -61 221t-164 113q-22 5 -78 5q-32 0 -44 11t-12 35q0 31 15 94q34 138 48 225q16 99 35.5 142.5t81.5 43.5q46 0 90.5 -2
t82.5 -2q100 0 148 20q12 5 23 5q28 0 43 -25q12 -20 12 -44q0 -92 -156 -99q-62 -2 -92 -2q-67 0 -140 6l-59 -276q191 -11 306 -109q141 -121 141 -380q0 -114 -52 -193.5t-132.5 -121t-165.5 -41.5z" />
    <glyph glyph-name="six" unicode="6" horiz-adv-x="788" 
d="M412 -13q-85 0 -140.5 47t-88 122.5t-48 162.5t-20 171t-4.5 145t7 144.5t26 171t55 162.5t93.5 122.5t141.5 47.5q117 0 186 -79t69 -203q0 -122 -73 -122q-25 0 -34 25.5t-9 46.5q0 71 -32.5 128.5t-73.5 57.5q-75 0 -106 -211q-16 -111 -16 -354q60 78 139 78
q111 0 171.5 -82.5t60.5 -233.5q0 -101 -30.5 -179.5t-97.5 -123t-176 -44.5zM466 122q32 0 62.5 24t50.5 71t20 117q0 69 -19 116t-48.5 70.5t-62.5 23.5q-39 0 -64.5 -29.5t-37.5 -71.5t-12 -80q0 -120 33 -180.5t78 -60.5z" />
    <glyph glyph-name="seven" unicode="7" horiz-adv-x="619" 
d="M223 -15q-51 0 -86 33.5t-35 88.5q0 525 362 1012q-116 -6 -183 -6q-30 0 -92 2q-156 7 -156 99q0 24 12 44q15 25 44 25q11 0 22 -5q48 -20 148 -20q38 0 82.5 2t90.5 2q120 0 161 -53q17 -22 17 -47q0 -37 -28 -85q-246 -433 -246 -950q0 -50 -16 -81q-32 -61 -97 -61z
" />
    <glyph glyph-name="eight" unicode="8" horiz-adv-x="770" 
d="M453 759q115 142 115 242q0 77 -42.5 114.5t-98.5 37.5q-31 0 -54 -29.5t-23 -97.5q0 -133 103 -267zM344 -2q-62 0 -115.5 21t-86 83t-32.5 135q0 167 209 379l-24 26q-179 187 -179 384q0 87 36 143.5t97.5 85t139.5 28.5q114 0 197 -62q99 -74 99 -220
q0 -157 -155 -328q163 -169 163 -343q0 -114 -52 -187.5t-132 -109t-165 -35.5zM313 124q46 0 82 24t57.5 68t21.5 114q0 87 -86 203q-175 -176 -175 -296q0 -44 29 -78.5t71 -34.5z" />
    <glyph glyph-name="nine" unicode="9" horiz-adv-x="757" 
d="M327 726q39 0 64.5 29.5t37.5 71.5t12 80q0 120 -33 180.5t-78 60.5q-32 0 -62.5 -24t-50.5 -71t-20 -117q0 -69 19 -116t48.5 -70.5t62.5 -23.5zM362 -7q-90 0 -141.5 23.5t-84 65.5t-32.5 104q0 36 18 71.5t51 35.5q34 0 34 -56q0 -44 29 -78.5t70 -34.5q98 0 129 221
q16 110 16 353q-60 -78 -139 -78q-111 0 -171.5 82.5t-60.5 233.5q0 101 30.5 179.5t97.5 123t176 44.5q85 0 140.5 -47t88 -122.5t48 -162.5t20 -171t4.5 -145t-7 -144.5t-26 -171t-55 -162.5t-93.5 -119.5t-141.5 -44.5z" />
    <glyph glyph-name="colon" unicode=":" horiz-adv-x="430" 
d="M215 -9q-48 0 -81.5 33.5t-33.5 81.5t33.5 81.5t81.5 33.5t81.5 -33.5t33.5 -81.5t-33.5 -81.5t-81.5 -33.5zM215 554q-48 0 -81.5 33.5t-33.5 81.5t33.5 81.5t81.5 33.5t81.5 -33.5t33.5 -81.5t-33.5 -81.5t-81.5 -33.5z" />
    <glyph glyph-name="semicolon" unicode=";" horiz-adv-x="483" 
d="M268 554q-48 0 -81.5 33.5t-33.5 81.5t33.5 81.5t81.5 33.5t81.5 -33.5t33.5 -81.5t-33.5 -81.5t-81.5 -33.5zM150 -343q-16 0 -33 9.5t-17 27.5q0 16 39 70q85 117 85 200q0 26 -35.5 60t-35.5 82t34 81.5t81 33.5q48 0 81.5 -33.5t33.5 -91.5q0 -181 -189 -415
q-19 -24 -44 -24z" />
    <glyph glyph-name="semicolon" unicode="&#x37e;" horiz-adv-x="483" 
d="M268 554q-48 0 -81.5 33.5t-33.5 81.5t33.5 81.5t81.5 33.5t81.5 -33.5t33.5 -81.5t-33.5 -81.5t-81.5 -33.5zM150 -343q-16 0 -33 9.5t-17 27.5q0 16 39 70q85 117 85 200q0 26 -35.5 60t-35.5 82t34 81.5t81 33.5q48 0 81.5 -33.5t33.5 -91.5q0 -181 -189 -415
q-19 -24 -44 -24z" />
    <glyph glyph-name="less" unicode="&#x3c;" 
d="M766 275q-12 0 -28 6l-605 237q-33 13 -33 55q0 32 33 45l605 237q16 7 28 7q34 0 34 -51q0 -32 -33 -45l-506 -198l506 -198q33 -13 33 -45q0 -50 -34 -50z" />
    <glyph glyph-name="equal" unicode="=" 
d="M754 618h-608q-46 0 -46 34q0 61 46 61h608q46 0 46 -34q0 -61 -46 -61zM754 424h-608q-46 0 -46 34q0 61 46 61h608q46 0 46 -34q0 -61 -46 -61z" />
    <glyph glyph-name="greater" unicode="&#x3e;" 
d="M134 275q-34 0 -34 50q0 32 33 45l506 198l-506 198q-33 13 -33 45q0 51 34 51q12 0 28 -7l605 -237q33 -13 33 -45q0 -42 -33 -55l-605 -237q-16 -6 -28 -6z" />
    <glyph glyph-name="question" unicode="?" horiz-adv-x="681" 
d="M236 -9q-47 0 -81 33.5t-34 81.5t34 81.5t81 33.5q48 0 81.5 -33.5t33.5 -81.5t-33.5 -81.5t-81.5 -33.5zM403 1156q0 79 -13 121q-21 65 -91 65q-59 0 -95 -34.5t-52 -82.5t-16 -90q0 -21 -9.5 -47t-36.5 -26q-71 1 -71 123q0 124 86 203t222 79q188 0 274 -104
q71 -86 71 -226q0 -151 -179 -401t-179 -368q0 -42 -27.5 -60t-57.5 -18t-50.5 16t-20.5 70q0 132 122.5 366t122.5 414z" />
    <glyph glyph-name="at" unicode="@" horiz-adv-x="1557" 
d="M832 -465q-197 0 -341.5 71t-238.5 189.5t-137.5 261.5t-43.5 290q0 167 52 325q49 148 143.5 266.5t232 189t316.5 70.5q352 0 518 -196q135 -162 135 -406q0 -130 -36 -256q-32 -112 -84 -201.5t-116.5 -143t-131.5 -53.5q-69 0 -112 30t-67 79t-34 108.5t-12 119
t-2 109.5q-46 -187 -95 -281q-73 -136 -191 -136q-97 0 -148 103.5t-51 284.5q0 170 81 286q78 111 189 111q118 0 206 -108q28 72 55.5 103.5t95.5 31.5q123 0 123 -101q0 -28 -7 -106q-17 -190 -17 -307q0 -176 47 -176q44 0 87 54t78 162.5t35 244.5q0 196 -89 333
q-130 198 -439 198q-288 0 -461 -224q-161 -209 -161 -508q0 -283 154 -480q174 -225 485 -225q121 0 284.5 46.5t272.5 123.5q11 8 23 8q26 0 40 -27q8 -15 8 -30q0 -29 -23 -46q-123 -88 -304 -138t-319 -50zM673 117q25 0 43.5 35.5t34.5 93.5t33 128q21 93 48 185
q-43 78 -118 78q-40 0 -65 -49t-36.5 -122t-11.5 -146q0 -79 19 -141t53 -62z" />
    <glyph glyph-name="A" unicode="A" horiz-adv-x="1183" 
d="M270 275q-12 -157 -19 -287q-7 -118 -112 -118q-82 0 -82 94q0 44 31 285q130 1001 486 1001q380 0 446 -743q19 -212 19 -549q0 -104 2 -217q0 -47 -21.5 -77t-58.5 -44.5t-78 -14.5q-132 0 -132 133q0 231 -118.5 384t-362.5 153zM531 1104q-86 0 -149 -190
q-74 -234 -103 -535q293 0 461 -205q-2 58 -5 112l-6 102q-30 472 -112 643q-36 73 -86 73z" />
    <glyph glyph-name="B" unicode="B" horiz-adv-x="1322" 
d="M709 -468q-63 0 -117 21t-87 65t-33 114q0 88 74 155.5t173 67.5q47 0 47 -47t-47 -47q-67 0 -105.5 -35t-38.5 -94q0 -45 32.5 -66t72.5 -21q101 0 153 128q45 112 45 277q0 90 -39 150t-98.5 97t-124.5 58q-52 17 -52 57q0 42 90 117q121 102 185 198q100 149 100 356
q0 80 -32.5 122.5t-81.5 42.5q-99 0 -178 -92t-123.5 -249.5t-44.5 -351.5v-195q0 -218 -23 -451q-8 -81 -66 -114q-41 -23 -85 -23q-99 0 -140 80q-17 32 -17 68q0 14 3 50q17 170 17 421q0 286 -35 657q-9 101 -15.5 154t-6.5 70q0 47 36.5 79t91.5 32q67 0 106 -29
q69 -51 88 -192q14 -109 14 -156q85 218 231 322q102 72 239 72q96 0 167.5 -41.5t111 -113t39.5 -160.5q0 -159 -104 -329q-89 -146 -291 -276q-33 -21 -33 -35t37 -25q331 -95 331 -337q0 -89 -27.5 -185t-84.5 -179t-145 -135t-209 -52z" />
    <glyph glyph-name="C" unicode="C" horiz-adv-x="1187" 
d="M617 -189q-156 0 -276.5 72.5t-188.5 216.5t-68 359q0 243 68.5 430.5t202.5 294.5t330 107q318 0 415 -410q6 -24 6 -42q0 -63 -63 -63q-51 0 -66 61q-27 109 -70.5 178t-94.5 101t-99 32q-79 0 -146 -77q-149 -171 -151 -603q0 -45 2.5 -109.5t14 -135t38.5 -132.5
t75 -102t125 -40q81 0 138.5 48t95.5 123.5t60 160.5q12 50 65 50q71 0 71 -51q0 -10 -3 -22q-28 -118 -81 -212q-131 -235 -400 -235z" />
    <glyph glyph-name="D" unicode="D" horiz-adv-x="1451" 
d="M896 61q20 37 38 82q85 211 85 569q0 179 -67.5 333t-235.5 154q-144 0 -290 -110l12 -95q40 -317 40 -650q0 -189 -21 -403q72 -48 170 -48q167 0 269 168zM845 1369q129 0 236 -67t160 -181.5t66.5 -222.5t13.5 -185q0 -221 -72 -434q-48 -143 -126 -256t-184 -185
q-111 -73 -283 -73q-136 0 -237 64q-13 -14 -31 -23q-40 -21 -85 -21q-99 0 -141 75q-16 30 -16 66q0 11 2 36q18 186 18 412q0 301 -46 710q-5 43 -8 65t-3 38q0 32 17.5 60.5t47 36.5t62.5 8q102 0 149 -72q233 149 460 149z" />
    <glyph glyph-name="E" unicode="E" horiz-adv-x="937" 
d="M493 -146q-202 0 -275.5 84t-81.5 191q-18 238 -18 395q0 273 24 419q12 77 48 169t145 107q75 11 158 11q197 0 353 -44q50 -14 50 -50q0 -11 -5 -25q-18 -44 -57 -44q-10 0 -22 3q-127 36 -288 40q-38 0 -54 -49q-37 -107 -39 -508q50 3 101 3q272 0 272 -67
q0 -28 -30 -42q-18 -8 -36 -8q-8 0 -17 2q-89 17 -191 17q-49 0 -99 -3q4 -258 36 -395q19 -86 95 -86q111 0 250 40q12 3 22 3q39 0 57 -44q5 -14 5 -25q0 -36 -50 -50q-156 -44 -353 -44z" />
    <glyph glyph-name="F" unicode="F" horiz-adv-x="810" 
d="M329 -398q-42 0 -81 22q-101 56 -106 618l-1 173q-18 -7 -31 -7q-15 0 -25 8q-16 13 -16 33q0 37 72 72q3 397 27 740q20 287 358 287q282 0 480 -90q35 -16 35 -53q0 -14 -7 -27q-18 -33 -56 -33q-14 0 -28 6q-173 67 -335 67q-125 0 -138 -197q-23 -343 -23 -625
q40 3 81 3q202 0 202 -67q0 -28 -22 -41q-14 -9 -27 -9q-6 0 -13 2q-66 17 -142 17q-40 0 -80 -4q0 -412 30 -685q4 -37 4 -56q0 -36 -16 -68q-32 -64 -76 -75t-66 -11z" />
    <glyph glyph-name="G" unicode="G" horiz-adv-x="1205" 
d="M625 -263q-534 0 -534 717q0 173 20 317q50 356 258 522q134 107 330 107q318 0 415 -410q6 -24 6 -42q0 -63 -63 -63q-51 0 -66 61q-27 109 -70.5 178t-94.5 101t-99 32q-79 0 -146 -77q-157 -181 -157 -697q0 -410 134 -536q46 -44 116 -44q120 0 180 155
q57 147 62 364q0 72 -62 72q-91 0 -190 -25q-13 -3 -21 -3q-24 0 -37 14.5t-13 32.5q0 37 42 49q133 36 265 36q171 0 171 -215q0 -351 -128.5 -498.5t-317.5 -147.5z" />
    <glyph glyph-name="H" unicode="H" horiz-adv-x="1273" 
d="M318 -303q-58 0 -104.5 36t-53.5 112q-22 262 -22 518q0 801 86 852q47 28 103 28q65 0 112 -35q42 -32 42 -89q0 -22 -4 -67q-21 -230 -26 -508q102 24 224 24q131 0 238 -27q-10 393 -38 652q-10 94 -10 138q0 87 95 87q77 0 88.5 -78t18.5 -172q36 -467 36 -865
q0 -211 -6 -361q-6 -110 -98 -110q-87 0 -87 99q4 182 4 380l-1 129q-105 30 -244 30q-123 0 -221 -27q0 -325 16 -530q3 -40 3 -52q0 -66 -39 -113q-43 -51 -112 -51z" />
    <glyph glyph-name="I" unicode="I" horiz-adv-x="629" 
d="M317 -160q-58 0 -104.5 32.5t-52.5 101.5q-23 238 -23 469q0 725 86 772q47 25 103 25q65 0 111 -32q43 -29 43 -80q0 -24 -3 -51t-6 -62q-22 -290 -22 -561q0 -241 15 -390q4 -41 4 -76q0 -60 -39 -102q-43 -46 -112 -46z" />
    <glyph glyph-name="J" unicode="J" horiz-adv-x="865" 
d="M252 -417q-91 0 -154.5 44.5t-96.5 117t-33 158.5q0 77 58 77t69 -70q30 -171 129 -171q165 0 165 461q0 227 -18 517q-22 357 -65 357q-38 0 -123 -61q-12 -8 -24 -8q-28 0 -42 34q-7 17 -7 33q0 37 26 56q154 115 381 115q62 0 95 -87.5t49 -172.5q26 -141 38 -422
q10 -229 10 -336q0 -416 -265 -590q-80 -52 -192 -52z" />
    <glyph glyph-name="K" unicode="K" horiz-adv-x="1028" 
d="M327 -348q-58 0 -104 34t-52 106q-23 254 -23 522q0 384 32 793q7 82 16 148q18 145 87 198q39 30 106 30q33 0 62.5 -8.5t47.5 -41.5q16 -28 16 -61q0 -59 -8 -117.5t-14 -127.5q-22 -267 -29 -524q140 292 300 570q35 62 86 62q36 0 53 -31q7 -13 7 -30q0 -29 -22 -69
q-167 -294 -295 -566q212 -354 427 -623q22 -28 22 -61q0 -26 -16 -50q-29 -44 -83 -44q-78 0 -399 498q-57 89 -84 151v-76q0 -275 13 -415q6 -64 6 -112q0 -62 -39 -107q-43 -48 -113 -48z" />
    <glyph glyph-name="L" unicode="L" horiz-adv-x="769" 
d="M1032 -454q-12 0 -23 5q-94 39 -320 39q-83 0 -176.5 -13.5t-176.5 -13.5q-62 0 -115 84.5t-63 238.5q-8 196 -8 392q0 255 15 523q9 179 26 310q20 152 88 208q39 31 106 31q33 0 62.5 -8.5t47 -41.5t17.5 -70q0 -52 -7.5 -106t-13.5 -129q-30 -367 -30 -731
q0 -278 19 -540q94 7 182 7q288 0 396 -60q31 -18 31 -59q0 -15 -6 -30q-16 -36 -51 -36z" />
    <glyph glyph-name="M" unicode="M" horiz-adv-x="1526" 
d="M302 -255q-58 0 -104 36t-53 112q-22 260 -22 501q0 486 49 738q46 241 128 265q35 10 80 10q111 0 147 -55q40 -64 71 -174q81 -286 188 -784q122 384 229 773q16 59 60 89.5t108 30.5q50 0 89 -29.5t44 -89.5q39 -467 39 -865q0 -225 -8 -377q-14 -135 -103 -135
q-85 0 -85 124v11q9 165 9 385q0 246 -14 492q-120 -431 -265 -854q-30 -88 -82 -88q-29 0 -55 28q-35 37 -47 113q-85 537 -238 1071q-22 77 -36 77q-15 0 -19 -77q-14 -306 -14 -512q0 -188 13 -398q7 -103 13.5 -157t6.5 -108q0 -59 -27 -102q-32 -51 -102 -51z" />
    <glyph glyph-name="N" unicode="N" horiz-adv-x="1319" 
d="M959 -268q-97 0 -162 141q-138 299 -338 892q-38 113 -48 113q-11 0 -11 -108q0 -160 12 -314q20 -235 36 -531q2 -33 5 -58.5t3 -46.5q0 -49 -42 -78t-103 -29q-53 0 -97 24q-69 38 -69 666q0 437 30 726q21 209 192 209q96 0 128 -93q265 -777 357 -1039q16 -47 28 -47
t14 58q14 305 14 567l-1 352q0 86 120 86q27 0 54 -7q60 -17 64 -73q11 -159 11 -321q0 -381 -35 -786q-13 -141 -54.5 -222t-107.5 -81z" />
    <glyph glyph-name="O" unicode="O" horiz-adv-x="1226" 
d="M595 -156q-156 0 -276.5 69t-188.5 207t-68 343q0 232 68.5 411.5t202.5 282t330 102.5q240 0 353 -223q94 -185 94 -466q0 -307 -114 -502q-132 -224 -401 -224zM649 -24q81 0 138.5 46t95.5 117.5t60 153t30.5 156t8.5 121.5q0 149 -27 254t-70.5 171t-94.5 96.5
t-99 30.5q-79 0 -146 -74q-149 -163 -151 -577q0 -42 2.5 -104t14 -129.5t38.5 -127t75 -97t125 -37.5z" />
    <glyph glyph-name="P" unicode="P" horiz-adv-x="1250" 
d="M470 330q97 43 169 108q115 102 174 226q17 36 30 68q40 99 40 220q0 80 -25 138q-32 75 -97 75q-99 0 -163 -92q-104 -151 -122 -485q-3 -60 -6 -258zM285 -290q-21 0 -65 10.5t-77 72.5q-16 30 -16 64q0 55 8 117q24 195 24 547q0 424 -28 676q-3 27 -3 50q0 52 42 81
q47 32 112 32q56 0 103 -25q55 -30 71 -320q126 302 398 302q127 0 202.5 -61t97.5 -139.5t22 -144.5q0 -161 -89 -329q-63 -118 -167 -216q-192 -182 -453 -214q-8 -150 -33 -369q-9 -81 -68 -113q-39 -21 -81 -21z" />
    <glyph glyph-name="Q" unicode="Q" horiz-adv-x="1246" 
d="M650 -11q59 0 105 26l-158 278q-22 40 -22 69q0 17 7 30q17 31 53 31q51 0 86 -62q70 -122 145 -226q49 83 78 201q39 158 39 305q0 163 -27 278t-70.5 187.5t-94.5 106t-99 33.5q-79 0 -146 -81q-149 -180 -151 -633q0 -46 2.5 -114t14 -142t38.5 -139t75 -106.5
t125 -41.5zM981 -271q-56 0 -160 171q-97 -56 -225 -56q-156 0 -276.5 76t-188.5 227t-68 376q0 255 68.5 452t202.5 309t330 112q240 0 353 -245q94 -203 94 -510q0 -337 -114 -551q-21 -38 -44 -71q59 -77 105 -135q22 -28 22 -61q0 -26 -16 -50q-29 -44 -83 -44z" />
    <glyph glyph-name="R" unicode="R" horiz-adv-x="1266" 
d="M305 -324q-20 0 -63.5 8.5t-78.5 61.5q-16 28 -16 60q0 36 5 76q15 136 15 379q0 345 -39 718q-5 52 -11.5 90.5t-6.5 78.5q0 43 40.5 71t87.5 28q66 0 105 -26q70 -47 89 -170q11 -75 13 -114q19 51 42 97q125 249 372 249q106 0 177.5 -43t108 -116t36.5 -164
q0 -92 -34 -168t-86.5 -139t-112 -113.5t-112.5 -90.5t-88 -71.5t-35 -55.5q0 -65 64 -142t157 -144t187 -106q60 -25 60 -77q0 -35 -23.5 -63t-68.5 -28q-88 0 -180 60.5t-169.5 136t-136 178.5t-58.5 178q0 39 39.5 84.5t83.5 85.5q49 45 99.5 104.5t86 143.5t35.5 204
q0 85 -34 139.5t-88 54.5q-94 0 -157.5 -83t-96.5 -227q-35 -150 -35 -303l1 -261q0 -237 -21 -460q-11 -72 -69 -101q-40 -20 -84 -20z" />
    <glyph glyph-name="S" unicode="S" horiz-adv-x="966" 
d="M415 -156q-91 0 -160.5 35.5t-108.5 95t-39 130.5q0 162 75 162q42 0 42 -54q0 -46 16 -100q39 -129 147 -129q54 0 87.5 23.5t48.5 61t15 77.5q0 79 -32 138.5t-81 108.5q-54 55 -116.5 106t-118.5 108q-130 129 -130 308q0 102 49.5 180.5t147.5 133.5t243 55
q163 0 271.5 -95t108.5 -278q0 -65 -17 -114t-56 -49q-59 0 -59 55v100q0 82 -62 161.5t-159 79.5q-87 0 -131 -63t-44 -135q0 -148 186 -303q65 -54 126 -118.5t102 -147t41 -192.5q0 -136 -87 -230q-103 -111 -305 -111z" />
    <glyph glyph-name="T" unicode="T" horiz-adv-x="798" 
d="M422 -398q-58 0 -104.5 36.5t-52.5 112.5q-28 336 -28 833q0 442 27 779q3 33 15 58q-191 -17 -334 -82q-17 -8 -34 -8q-40 0 -63 32q-9 14 -9 28q0 35 37 52q229 105 554 105q320 0 544 -91q40 -16 40 -52q0 -13 -8 -27q-20 -33 -64 -33q-16 0 -32 6q-149 59 -353 73
q15 -31 15 -68q0 -67 -7 -170q-16 -227 -16 -600q0 -513 16 -725q4 -49 4 -99q0 -66 -39 -113t-108 -47z" />
    <glyph glyph-name="U" unicode="U" horiz-adv-x="1281" 
d="M632 -136q-407 0 -501 400q-27 115 -30.5 203t-3.5 137q0 181 35 519q6 61 53 89t103 28q64 0 111 -35q41 -32 41 -86q0 -30 -4 -64t-7 -77q-14 -187 -14 -346q0 -636 271 -636q140 0 208 192q64 185 64 519q0 264 -15 414q-3 28 -3 57q0 62 88 62q85 0 93 -61
q29 -244 29 -475q0 -629 -297 -790q-91 -50 -221 -50z" />
    <glyph glyph-name="V" unicode="V" horiz-adv-x="1196" 
d="M600 -234q-183 0 -304 226q-104 195 -155 509q-48 290 -48 576q0 103 7 180q6 60 53 88t103 28q64 0 111 -35q43 -33 43 -92l-1 -202q0 -105 8 -240q19 -319 66 -547q56 -270 138 -270q41 0 90 125t92.5 323t71.5 428t28 441q0 33 28.5 50.5t48 18t22.5 0.5
q34 0 61.5 -14.5t27.5 -46.5q0 -306 -53 -646q-60 -383 -163 -622q-120 -278 -275 -278z" />
    <glyph glyph-name="W" unicode="W" horiz-adv-x="1787" 
d="M1221 -269q-259 0 -360 417q-32 -113 -74.5 -199t-96 -134.5t-119.5 -48.5q-113 0 -193.5 67.5t-133 180t-82.5 252t-41.5 280t-11.5 264.5q0 154 9 257q6 61 52.5 88.5t100.5 27.5q69 0 113 -33.5t44 -98.5q0 -52 -2 -114q-4 -98 -4 -187q7 -530 94 -702q31 -61 76 -61
q47 0 94.5 160.5t79 405.5t31.5 499q0 88 44 127.5t112 39.5q169 0 169 -162q0 -94 -3 -221.5t-3 -260.5q0 -623 125 -623q41 0 83 110.5t76 289.5t55 395t21 427q0 33 28.5 50.5t48.5 17.5l22 1q34 0 62 -14.5t28 -46.5q0 -309 -41 -622q-47 -353 -141 -576
q-106 -253 -262 -253z" />
    <glyph glyph-name="X" unicode="X" horiz-adv-x="1178" 
d="M227 -412q-41 0 -89 24t-77 74q-16 29 -16 61q0 24 10 49q173 422 383 887q-189 264 -381 491q-25 29 -25 64q0 24 13 45q17 27 47 40q21 9 40 9q38 0 66 -34q166 -196 332 -420q126 262 246 459q50 81 128 81q41 0 79 -22q79 -46 79 -137q0 -50 -29 -99
q-141 -238 -296 -575q452 -664 452 -794q0 -56 -50 -91q-24 -16 -43 -16q-23 0 -42 33q-202 354 -408 665q-141 -320 -258 -600q-27 -66 -53 -123q-32 -71 -108 -71z" />
    <glyph glyph-name="Y" unicode="Y" horiz-adv-x="1317" 
d="M554 -507q-183 0 -254.5 73.5t-71.5 153.5q0 91 62 91q81 0 81 -91q0 -114 154 -114q119 0 202.5 156t95.5 352q10 177 10 225q-120 -299 -343 -299q-300 0 -365 350q-19 101 -21 176t-2 109q0 144 30 451q6 61 53 89t103 28q65 0 112 -36q42 -32 42 -91q0 -18 -9 -110
q-30 -257 -30 -433q0 -401 141 -401q59 0 109.5 67.5t87.5 183.5q70 223 70 479q0 92 -5 153q-3 29 -3 59q0 61 43 95t111 34q56 0 103 -28t53 -89q34 -446 34 -743q0 -488 -219 -731q-150 -159 -374 -159z" />
    <glyph glyph-name="Z" unicode="Z" horiz-adv-x="972" 
d="M113 -412q-49 0 -70.5 29t-21.5 71q0 99 107 303q43 103 132 304q334 759 336 762q-82 -7 -161 -7q-245 0 -338 60q-27 18 -27 58q0 15 5 30q13 37 43 37q11 0 22 -7q75 -47 272 -47q178 0 293 23q33 7 48 7q51 0 87 -32q57 -50 57 -155q0 -53 -24 -107
q-505 -1103 -528 -1148q121 12 237 12q288 0 395 -61q33 -19 33 -58q0 -15 -7 -30q-16 -36 -51 -36q-12 0 -25 7q-86 47 -318 47q-302 0 -452 -53q-27 -9 -44 -9z" />
    <glyph glyph-name="bracketleft" unicode="[" horiz-adv-x="1180" 
d="M1041 -343q17 0 28 12.5t11 27.5q0 16 -14 28q-55 49 -107 108q106 131 106 292q0 73 -22 153q-94 -100 -118.5 -167.5t-24.5 -123.5q0 -46 11 -97q-117 151 -206 342l-20 43q196 141 196 400v3q-115 -70 -168.5 -142t-60.5 -183q-107 266 -148 542q28 76 28 152
q0 127 -76 258q-76 -120 -76 -241q0 -77 44 -162q19 -138 56 -278q-133 143 -349 143l-31 -1q84 -126 163.5 -170t192.5 -44l44 1q78 -267 198 -478q-105 62 -225 62q-90 0 -189 -35q119 -96 181 -108.5t93 -12.5q77 0 173 36q125 -210 284 -351q11 -9 26 -9z" />
    <glyph glyph-name="backslash" unicode="\" horiz-adv-x="7051" 
d="M4661 273q-217 0 -473 136q-175 93 -477 308q-155 110 -315 214q242 97 499.5 146.5t490.5 49.5q394 0 589 -170q142 -125 142 -289q0 -30 -10 -90t-68 -136t-154 -122.5t-224 -46.5zM745 215h-7q132 215 353 245q-237 97 -470 260q-110 -99 -211 -116q-27 -4 -58 -4
q-84 0 -194 34q155 136 331 136q35 0 70 -5q-121 90 -225 189q-108 50 -158.5 129.5t-75.5 219.5q233 -92 303 -302q212 -198 471 -345q-69 100 -69 200q0 89 44 214q121 -152 121 -319q0 -67 -19 -137q232 -116 433 -165q-95 76 -125 166q-22 67 -22 161q0 35 3 73
q219 -158 219 -409v-7q81 -14 157 -18q17 -1 28 -12.5t11 -29.5q-1 -17 -12.5 -27.5t-28.5 -10.5q-222 10 -459 100q-76 -128 -167 -174t-243 -46zM6313 215q-132 215 -354 245q239 98 471 260q110 -99 211 -116q27 -4 57 -4q84 0 194 34q-155 136 -331 136q-34 0 -69 -5
q120 90 225 189q107 50 158 129.5t76 219.5q-233 -92 -303 -302q-212 -198 -471 -345q69 101 69 199q0 90 -45 215q-121 -152 -121 -319q0 -67 19 -137q-233 -117 -432 -165q95 76 125 166q21 65 21 157q0 36 -3 77q-219 -158 -219 -412v-4q-80 -14 -157 -18
q-17 -1 -28 -12.5t-11 -29.5q2 -17 13 -27.5t28 -10.5q222 10 460 100q75 -128 166 -174t244 -46h7zM2639 -341q176 1 333 51.5t280.5 150t196 248.5t72.5 346q0 41 -38 41q-40 0 -40 -42q0 -169 -67 -299t-180.5 -218t-256.5 -133.5t-298 -46.5q-291 0 -488 153
q-218 169 -218 473q0 118 40.5 230.5t120.5 202t198.5 143t274.5 53.5q234 0 511 -143q-327 -199 -478 -458q-6 -12 -6 -22t10.5 -24.5t33.5 -14.5q19 0 33 20q153 265 494 452q213 -126 426 -279q322 -228 527 -335q293 -153 552 -153q152 0 271 50t200 133.5t121 188.5
q34 90 34 186q0 14 -4 77.5t-60 167.5t-167 188.5t-279.5 134.5t-399.5 50q-259 0 -541.5 -62.5t-541.5 -181.5q-174 106 -357.5 173t-380.5 71q-265 -2 -443 -111.5t-267 -286.5t-89 -371q0 -203 70.5 -354.5t192.5 -251t277.5 -148.5t330.5 -49z" />
    <glyph glyph-name="bracketright" unicode="]" horiz-adv-x="1180" 
d="M139 -343q15 0 26 9q159 141 284 351q96 -36 174 -36q30 0 92 12.5t181 108.5q-98 35 -189 35q-119 0 -225 -62q120 211 198 478l44 -1q113 0 192.5 44t163.5 170l-31 1q-215 0 -349 -143q37 140 56 278q44 85 44 162q0 121 -76 241q-75 -131 -75 -258q0 -76 27 -152
q-41 -276 -148 -542q-7 111 -60.5 183t-168.5 142v-3q0 -259 196 -400l-20 -43q-89 -191 -206 -342q11 51 11 97q0 56 -24.5 123.5t-118.5 167.5q-22 -80 -22 -153q0 -161 106 -292q-52 -59 -107 -108q-14 -12 -14 -28q0 -15 11.5 -27.5t27.5 -12.5z" />
    <glyph glyph-name="asciicircum" unicode="^" horiz-adv-x="889" 
d="M388 1237l12 21q15 27 44 27q30 0 45 -27l12 -21q48 -82 280 -484q8 -14 8 -24q0 -17 -18 -27q-24 -15 -42 -15q-19 0 -30 19l-254 440l-255 -440q-11 -19 -30 -19q-18 0 -42 15q-18 10 -18 27q0 10 8 24q232 402 280 484z" />
    <glyph glyph-name="underscore" unicode="_" horiz-adv-x="800" 
d="M704 -200h-608q-46 0 -46 34q0 61 46 61h608q46 0 46 -34q0 -61 -46 -61z" />
    <glyph glyph-name="grave" unicode="`" horiz-adv-x="473" 
d="M306 1154q-206 205 -206 232q0 20 25 32q34 16 60 16t41 -23l139 -220q8 -12 8 -21q0 -11 -9 -20.5t-23 -9.5q-20 0 -35 14z" />
    <glyph glyph-name="a" unicode="a" horiz-adv-x="943" 
d="M228 -133q-36 0 -69 13t-51 39.5t-18 65.5q1 88 2 238t12 282q51 642 355 642q285 0 379 -844q29 -257 29 -291q0 -86 -82 -86q-98 0 -103 138q-2 44 -85 152.5t-240 108.5q-7 -161 -8 -343q0 -115 -121 -115zM668 312q-30 377 -86 559q-43 138 -91 138q-23 0 -45 -47
q-61 -133 -83 -533q179 0 305 -117z" />
    <glyph glyph-name="b" unicode="b" horiz-adv-x="1045" 
d="M561 -210q-53 0 -98.5 18t-72.5 55.5t-27 94.5q0 71 60 128.5t145 57.5q48 0 48 -49t-48 -49q-40 0 -64 -22.5t-24 -65.5q0 -56 59 -56q60 0 94 88t34 216q0 163 -185 227q-50 17 -50 55q0 36 71 98q89 78 136 151q74 114 74 274q0 61 -20.5 89t-44.5 28
q-63 0 -118.5 -67t-88.5 -188.5t-33 -273.5v-152q0 -170 -17 -353q-7 -66 -57 -96q-36 -21 -76 -21q-89 0 -125 72q-13 26 -13 55q0 11 2 40q13 132 13 328q0 222 -26 512q-7 78 -12 119.5t-5 55.5q0 39 32.5 68.5t83.5 29.5q59 0 95 -27q39 -30 58 -96q8 -27 15 -126
q33 118 146 202q83 61 195 61q79 0 137.5 -35.5t89.5 -93.5t31 -129q0 -126 -79 -260q-68 -116 -223 -220q-19 -12 -19 -19q0 -4 16 -9q260 -78 260 -274q0 -157 -86 -288q-100 -153 -283 -153z" />
    <glyph glyph-name="c" unicode="c" horiz-adv-x="946" 
d="M499 -62q-157 0 -259 104q-168 171 -168 511q0 414 236 542q85 45 188 45q254 0 349 -236q41 -104 41 -165q0 -59 -66 -59q-65 0 -75 57q-25 152 -95 224q-41 41 -98 41q-81 0 -128 -93q-63 -127 -63 -409q0 -250 78 -360q45 -64 97 -64q65 0 126 88q46 66 71 167
q8 36 51 36q81 0 81 -56q0 -19 -22 -87q-93 -286 -344 -286z" />
    <glyph glyph-name="d" unicode="d" horiz-adv-x="1129" 
d="M490 -60q112 0 180 124q94 172 94 503q0 139 -48 253.5t-159 114.5q-99 0 -197 -76l8 -71q31 -247 31 -507q0 -148 -16 -311q42 -30 107 -30zM512 -183q-110 0 -174 42q-48 -26 -91 -26q-88 0 -124 68q-13 24 -13 53q15 174 15 350q0 235 -35 553q-8 68 -8 81q0 26 15 52
t43.5 33.5t56.5 7.5q90 0 119 -45q159 106 338 106q104 0 189.5 -56t126 -147t51 -175.5t10.5 -145.5q0 -173 -54 -340q-77 -236 -239 -349q-89 -62 -226 -62z" />
    <glyph glyph-name="e" unicode="e" horiz-adv-x="758" 
d="M272 -121q-41 0 -73 19t-52 107q-33 145 -33 359q0 516 22 606t102 105t170 15q145 0 256 -44q39 -16 39 -52q0 -11 -4 -21q-17 -40 -64 -40q-14 0 -27 5q-86 33 -145 33q-37 0 -49 -23q-23 -47 -26 -407h127q171 0 171 -64q0 -26 -23 -41q-16 -10 -34 -10q-8 0 -17 2
q-46 13 -99 13h-125q0 -304 9 -423q50 4 117 4q29 0 75 -6q68 -9 106.5 -24t38.5 -52q0 -60 -79 -60q-18 0 -35 5q-61 18 -138 18q-61 0 -170 -20q-22 -4 -40 -4z" />
    <glyph glyph-name="f" unicode="f" horiz-adv-x="765" 
d="M283 -182q-39 0 -74 21q-85 50 -87 490v117q-24 0 -39 12.5t-15 31.5q0 34 54 62q6 502 29 587q10 38 33 65q36 41 99 48q70 7 148 7q217 0 371 -72q35 -17 35 -51q0 -12 -6 -24q-18 -35 -61 -35q-17 0 -32 7q-108 50 -240 50q-54 0 -67.5 -50t-16.5 -93
q-17 -266 -17 -372h41q171 0 171 -64q0 -26 -23 -41q-16 -10 -34 -10q-8 0 -17 2q-46 13 -99 13q-29 0 -40 -1q0 -311 23 -524q3 -29 3 -44q0 -29 -14 -59q-26 -53 -65.5 -63t-59.5 -10z" />
    <glyph glyph-name="g" unicode="g" horiz-adv-x="967" 
d="M493 -62q-103 0 -188 46q-236 127 -236 542q0 339 168 510q102 104 259 104q251 0 344 -286q22 -67 22 -87q0 -56 -81 -56q-43 0 -52 36q-24 101 -70 167q-61 89 -126 89q-52 0 -97 -65q-78 -110 -78 -360q0 -282 63 -409q47 -93 128 -93q57 0 96.5 40t66.5 126.5
t27 196.5q0 48 -35 48q-54 0 -132 -21q-9 -3 -18 -3q-30 0 -44 16.5t-14 32.5q0 36 44 49q103 29 206 29q126 0 126 -114q0 -60 -4 -144q-3 -60 -35.5 -161.5t-105.5 -159.5q-93 -73 -234 -73z" />
    <glyph glyph-name="h" unicode="h" horiz-adv-x="1028" 
d="M776 -210q-58 0 -83 46q-8 18 -8 37q0 23 4 62q14 128 14 420l-1 93q-63 19 -163 19q-88 0 -146 -17v-45q0 -201 12 -361l2 -40q0 -54 -31 -93q-38 -47 -102 -47q-53 0 -93 32t-45 95q-17 204 -17 404q0 629 71 673q41 26 91 26q58 0 99 -33q36 -28 36 -76q0 -18 -3 -53
q-15 -179 -19 -378q53 13 148 13q101 0 158 -15q-6 270 -35 586q-8 89 -11 111q-2 10 -2 21q0 49 65 49q45 0 71 -22q33 -29 46 -97q14 -76 22 -177q27 -364 27 -675q0 -240 -18 -480q-5 -59 -66 -75q-12 -3 -23 -3z" />
    <glyph glyph-name="i" unicode="i" horiz-adv-x="542" 
d="M266 -23q-52 0 -92.5 29t-45.5 85q-17 184 -17 362q0 562 75 603q38 21 87 21q57 0 96 -27t39 -71q0 -18 -2 -39t-4 -48q-17 -222 -17 -430q0 -186 11 -300q3 -32 3 -59q0 -48 -35 -87t-98 -39zM325 1191q-54 0 -92.5 38.5t-38.5 92.5t38.5 92.5t92.5 38.5q55 0 93 -38.5
t38 -92.5t-38 -92.5t-93 -38.5z" />
    <glyph glyph-name="j" unicode="j" horiz-adv-x="710" 
d="M218 -436q-77 0 -129.5 38.5t-78 97t-25.5 126.5t13.5 126.5t59.5 58.5q54 0 54 -72q0 -93 18 -153q23 -76 67 -76q103 0 103 558q0 303 -24 537q-7 62 -7 110q0 24 -1 29q-33 -9 -87 -49q-16 -11 -33 -11q-37 0 -50 34q-7 17 -7 30q0 32 24 52q122 94 301 94
q76 0 99.5 -81.5t33.5 -157.5q15 -106 24 -305q7 -179 7 -262q0 -540 -208 -681q-62 -43 -154 -43z" />
    <glyph glyph-name="k" unicode="k" horiz-adv-x="872" 
d="M271 -171q-52 0 -92 30.5t-45 89.5q-17 199 -17 408q0 251 11.5 421t18.5 221q14 117 69 161q36 29 96 29q28 0 56.5 -8.5t44.5 -40.5q13 -23 13 -50q0 -46 -6 -92q-21 -164 -26 -442q140 292 300 570q35 62 86 62q36 0 53 -31q7 -13 7 -30q0 -29 -22 -69
q-167 -294 -295 -566q129 -216 259 -400q29 -40 29 -75q0 -41 -39 -74q-27 -24 -54 -24q-46 0 -91 65q-189 269 -236 376q0 -202 9 -311q5 -50 5 -88q0 -50 -31 -88q-39 -44 -103 -44z" />
    <glyph glyph-name="l" unicode="l" horiz-adv-x="623" 
d="M316 -121q-73 0 -120 26q-44 25 -60 89q-28 114 -28 310q0 268 18 623q3 66 14 152q14 116 69 163q32 26 90 26q28 0 54.5 -8.5t40.5 -36t14 -56.5q0 -39 -5 -79.5t-9 -96.5q-26 -361 -26 -724q0 -177 8 -261q95 4 160 4q85 0 85 -56q-1 -64 -67 -64q-59 0 -120.5 -5.5
t-117.5 -5.5z" />
    <glyph glyph-name="m" unicode="m" horiz-adv-x="1247" 
d="M227 -210q-30 0 -54 16q-53 35 -53 542q0 311 29 676q4 49 38.5 76.5t81.5 27.5q56 0 94 -27.5t51 -77.5q81 -303 158 -625q149 672 212 775q30 48 127 48q91 0 118 -47q37 -64 46 -176q26 -327 26 -579q0 -188 -17 -391q-5 -62 -44.5 -94.5t-92.5 -32.5q-66 0 -96 49
q-21 35 -21 82q0 43 5 85t9 122q11 164 11 311q0 200 -20 336q-75 -292 -184 -774q-13 -60 -40 -90t-60 -30q-56 0 -82 79q-109 330 -166 543q-3 -68 -3 -259q0 -263 15 -425q3 -35 3 -57q0 -39 -30 -63q-24 -20 -61 -20z" />
    <glyph glyph-name="n" unicode="n" horiz-adv-x="1026" 
d="M252 1138q73 0 106 -60q12 -22 12 -46q0 -37 -5 -90q-12 -147 -12 -246q0 -238 4 -354q123 503 217 748q50 130 143 130q127 0 149 -263q28 -335 28 -651q0 -135 -9 -267q-3 -53 -63 -70q-26 -8 -50 -8q-117 0 -117 85l2 266q0 71 -11 529q-8 -26 -247 -886
q-23 -90 -116 -90q-125 0 -140 185q-27 351 -27 652q0 368 51 412q27 24 85 24z" />
    <glyph glyph-name="o" unicode="o" horiz-adv-x="978" 
d="M481 -22q-125 0 -220.5 57t-147.5 167t-52 271q0 182 52 324t157 225.5t262 83.5q194 0 282 -181q73 -148 73 -368q0 -241 -89 -398q-102 -181 -317 -181zM521 105q51 0 90 32t66.5 87t44 117.5t23 120.5t6.5 95q0 214 -72 327q-58 91 -127 91q-47 0 -94 -53
q-107 -122 -108 -442q0 -33 1.5 -81t10 -100.5t28 -97t51.5 -70.5t80 -26z" />
    <glyph glyph-name="p" unicode="p" horiz-adv-x="993" 
d="M406 411q38 17 89 66q85 78 128 172q13 28 22 53q30 76 30 170q0 61 -18 106q-20 48 -53 48q-62 0 -104 -63q-77 -116 -90 -375q-3 -47 -4 -177zM247 -109q-20 0 -59 10t-67 64q-13 25 -13 53q0 43 6 91q18 152 18 427q0 330 -21 526q-2 22 -2 40q0 44 37 71q41 29 98 29
q49 0 90 -23q48 -27 56 -179q114 169 283 169q105 0 166.5 -52t78.5 -115t17 -115q0 -126 -68 -259q-48 -93 -127 -171q-149 -147 -337 -171q-6 -108 -25 -279q-7 -68 -58 -96q-35 -20 -73 -20z" />
    <glyph glyph-name="q" unicode="q" horiz-adv-x="1003" 
d="M521 115q37 0 56 12l-115 211q-17 33 -17 56q0 15 6 26q17 34 59 34q52 0 83 -58q53 -94 88 -145q19 33 41 126q29 121 29 235q0 235 -72 359q-58 101 -126 101q-48 0 -92 -56q-110 -138 -111 -489q0 -36 1.5 -89t10.5 -110t28.5 -106.5t51 -78t79.5 -28.5zM769 -111
q-56 0 -128 123q-57 -34 -160 -34q-125 0 -220.5 63t-147.5 182.5t-52 296.5q0 200 52 355t157 246.5t262 91.5q195 0 284 -201q71 -160 71 -400q0 -264 -86 -432q-16 -31 -32 -53l76 -101q19 -24 19 -52q0 -22 -14 -42q-27 -43 -81 -43z" />
    <glyph glyph-name="r" unicode="r" horiz-adv-x="1012" 
d="M267 -153q-18 0 -57 8t-69 56q-13 23 -13 50q0 28 3 60q12 105 12 295q0 268 -29 559q-4 41 -9 71t-5 61q0 38 36 64t80 26q141 0 168 -176q98 204 298 204q87 0 146 -37t87.5 -96t28.5 -131q0 -73 -26 -133.5t-66.5 -110.5t-86 -90t-85 -71.5t-63.5 -54t-24 -38.5
q0 -49 46 -107t114 -108.5t136 -80.5q55 -23 55 -70q0 -29 -22 -56t-67 -27q-75 0 -147.5 50t-132 110t-104 142t-44.5 142q0 32 30.5 69t65.5 70.5t72 78.5t63.5 109.5t26.5 157.5q0 65 -22.5 102t-49.5 37q-58 0 -102 -60t-69 -171q-26 -116 -26 -235l1 -204
q0 -185 -16 -359q-9 -61 -62 -89q-33 -17 -72 -17z" />
    <glyph glyph-name="s" unicode="s" horiz-adv-x="781" 
d="M344 -22q-75 0 -132 30t-88 79t-31 106q0 138 76 138q52 0 52 -54q0 -35 12 -76q26 -90 90 -90q32 0 52 14.5t30.5 42t10.5 57.5q0 61 -24 107t-62 85t-83.5 78t-89 84t-71.5 101t-28 129q0 81 38.5 152.5t117 117.5t194.5 46q132 0 218.5 -79t86.5 -224q0 -139 -75 -139
q-64 0 -64 55v78q0 62 -43 119t-103 57q-52 0 -81.5 -44t-29.5 -92q0 -91 49.5 -147t86.5 -89q49 -44 95.5 -95t78 -117t31.5 -152q0 -109 -68 -185q-83 -93 -246 -93z" />
    <glyph glyph-name="t" unicode="t" horiz-adv-x="823" 
d="M421 -140q-53 0 -93 32.5t-45 94.5q-21 263 -21 581q0 284 21 548q2 26 3 30q-108 -10 -212 -59q-17 -9 -36 -9q-43 0 -66 34q-8 13 -8 25q0 33 36 50q177 84 427 84q245 0 418 -73q40 -16 40 -50q0 -12 -7 -24q-20 -35 -67 -35q-17 0 -34 7q-108 44 -228 52q4 -8 4 -38
q0 -53 -5 -133q-12 -177 -12 -408q0 -330 12 -494q3 -40 3 -79q0 -53 -33 -94.5t-97 -41.5z" />
    <glyph glyph-name="u" unicode="u" horiz-adv-x="1031" 
d="M515 -4q-323 0 -396 323q-20 90 -23 159t-3 107q0 142 27 406q4 51 45.5 77t91.5 26q57 0 98 -33q36 -28 36 -74q0 -23 -4 -50q-15 -134 -15 -330q0 -484 183 -484q89 0 136 140q48 143 48 403q0 206 -11 322q-3 22 -3 45q0 61 87 61q82 0 89 -60q22 -190 22 -371
q0 -495 -230 -624q-74 -43 -178 -43z" />
    <glyph glyph-name="v" unicode="v" horiz-adv-x="960" 
d="M490 -83q-152 0 -247 186q-79 153 -117 399q-36 227 -36 450q0 81 5 141q5 51 46 76.5t91 25.5q57 0 99 -32q37 -30 37 -79l-1 -158q0 -81 6 -187q14 -248 49 -426q40 -199 84 -199q15 0 49.5 92t67 246t53.5 333.5t21 343.5q0 30 27.5 47.5t46 18t21.5 0.5q32 0 59 -15
t27 -45q0 -239 -40 -504q-45 -300 -122 -487q-94 -227 -226 -227z" />
    <glyph glyph-name="w" unicode="w" horiz-adv-x="1390" 
d="M936 -110q-211 0 -271 258q-3 -10 -35.5 -78.5t-76.5 -110.5t-104 -42q-95 0 -159.5 56.5t-104.5 146t-62.5 198.5t-31.5 219t-9 207q0 120 7 201q5 51 46 76.5t89 25.5q61 0 99.5 -30.5t38.5 -84.5q0 -41 -2 -89q-2 -58 -2 -111q0 -438 69 -580q18 -38 38 -38
q18 0 52 119.5t57.5 310.5t23.5 389q0 71 38 106.5t99 35.5q147 0 147 -139q0 -73 -2.5 -172t-2.5 -203q0 -474 74 -474q15 0 44.5 80.5t55.5 220.5q57 314 57 640q0 30 27 47.5t50 17.5h20q31 0 57.5 -14.5t26.5 -44.5q0 -241 -31 -486q-35 -276 -106 -450
q-83 -208 -216 -208z" />
    <glyph glyph-name="x" unicode="x" horiz-adv-x="967" 
d="M215 -54q-37 0 -78 17.5t-65 52.5q-13 19 -13 40q0 16 8 33q130 266 286 558q-139 164 -283 307q-21 20 -21 44q0 16 11 31q15 20 43 31q21 7 41 7q41 0 68 -28q125 -123 226 -239q80 138 170 262q43 58 115 58q39 0 73 -16q66 -33 66 -93q0 -32 -23 -65
q-105 -149 -220 -360q338 -418 338 -502q0 -38 -43 -63q-24 -14 -47 -14q-31 0 -50 28q-152 224 -283 391q-91 -172 -178 -349q-20 -42 -40 -78q-28 -53 -101 -53z" />
    <glyph glyph-name="y" unicode="y" horiz-adv-x="1027" 
d="M435 -395q-149 0 -207 62t-58 127q0 83 66 83q81 0 81 -83q0 -77 96 -77q75 0 134.5 116t68.5 268l6 95q-56 -165 -235 -165q-243 0 -294 284q-17 97 -17 224q0 446 68 489q41 26 91 26q58 0 99 -34q37 -28 37 -78q0 -14 -7 -86q-23 -260 -23 -397q0 -301 86 -301
q32 0 66.5 48t61.5 137q52 174 52 373q0 71 -3 119q-3 22 -3 46q0 51 37.5 82t98.5 31q49 0 90.5 -26t46.5 -77l6 -76q17 -291 17 -504q0 -383 -168 -579q-115 -127 -294 -127z" />
    <glyph glyph-name="z" unicode="z" horiz-adv-x="793" 
d="M115 -180q-49 0 -69 27.5t-20 62.5q0 78 81 279l98 235q242 572 242 578q-30 -3 -90 -3q-193 0 -265 49q-30 20 -30 55q0 12 6 27q12 37 50 37q17 0 31 -9q50 -33 190 -33q131 0 216 18q26 6 40 6q49 0 79 -28q49 -45 49 -130q0 -43 -18 -86l-388 -917q61 6 150 6
q223 0 306 -49q35 -20 35 -55q0 -13 -7 -29q-16 -35 -56 -35q-17 0 -29 7q-62 35 -229 35q-222 0 -332 -40q-22 -8 -40 -8z" />
    <glyph glyph-name="braceleft" unicode="{" horiz-adv-x="1029" 
d="M586 -35q-93 54 -197 54q-83 0 -172 -33q107 -84 162 -95t83 -11q68 1 154 34q113 -186 255 -309q9 -9 22 -9q16 1 26 12t10 23q0 15 -13 26q-49 44 -96 95q92 115 92 255q0 70 -20 141q-84 -90 -105 -149t-21 -107q0 -44 11 -89q-194 246 -223 454q209 67 279 290
q-118 -29 -169.5 -67t-78.5 -80q-23 -33 -39 -77q-4 57 -4 115q0 116 18 239l5 42q215 10 342 203l2 1l-33 1q-98 0 -168 -25.5t-129 -105.5q50 250 154 476q152 112 165 327q-201 -91 -221 -283q-52 -112 -93 -234q-30 172 -191 276l-23 15q1 -135 39 -207t121 -127l33 -19
q-72 -238 -86 -453q-4 -98 -4 -148q-45 144 -70 273q3 24 3 47q-1 162 -131 297q-25 -73 -25 -140q0 -121 87 -235q26 -114 51 -206l18 -63q9 -31 20 -61q-106 135 -293 152l-33 2q65 -118 131 -163t164 -54q16 -2 53 -2q60 -162 138 -298z" />
    <glyph glyph-name="bar" unicode="|" horiz-adv-x="7051" 
d="M2405 689q217 0 473 -137q175 -92 477 -307q155 -110 315 -215q-242 -97 -499.5 -146t-490.5 -49q-395 0 -589 170q-142 125 -142 289q0 30 10 90t68 136t154 122.5t224 46.5zM745 747q152 0 243 -46t167 -174q237 90 459 100q17 0 28.5 -10.5t12.5 -27.5
q0 -18 -11 -29.5t-28 -12.5q-76 -4 -157 -18v-7q0 -251 -219 -409q-3 38 -3 73q0 94 22 161q30 90 125 166q-201 -49 -433 -165q19 -70 19 -137q0 -167 -121 -319q-44 125 -44 214q0 100 69 200q-259 -147 -471 -346q-70 -209 -303 -301q25 140 75.5 219t158.5 129
q104 100 225 190q-35 -6 -70 -6q-176 0 -331 137q110 34 194 34q31 0 58 -4q101 -17 211 -116q233 163 470 260q-221 30 -353 245h7zM6313 747h-7q-153 0 -244 -46t-166 -174q-238 90 -460 100q-17 0 -28 -10.5t-13 -27.5q0 -18 11 -29.5t28 -12.5q77 -4 157 -18v-5
q0 -253 219 -411q3 40 3 77q0 92 -21 157q-30 90 -125 166q199 -49 432 -165q-19 -70 -19 -137q0 -167 121 -319q45 125 45 214q0 99 -69 200q259 -147 471 -346q70 -209 303 -301q-25 140 -76 219t-158 129q-105 100 -225 190q35 -6 69 -6q176 0 331 137q-110 34 -194 34
q-30 0 -57 -4q-101 -17 -211 -116q-232 162 -471 260q222 30 354 245zM4427 1303q-176 -1 -333 -51.5t-280.5 -150.5t-196 -248.5t-72.5 -345.5q0 -41 37 -41q41 0 41 42q0 169 67 298.5t180.5 218t256.5 134t298 46.5q291 0 488 -153q218 -169 218 -473
q0 -118 -40.5 -230.5t-120.5 -202.5t-198.5 -143.5t-274.5 -53.5q-234 0 -511 144q326 199 478 458q6 12 6 21q0 11 -10.5 25.5t-34.5 14.5q-18 0 -32 -20q-154 -265 -494 -452q-213 126 -426 279q-322 228 -527 335q-293 153 -552 153q-152 0 -271 -50t-200 -133.5
t-121 -188.5q-34 -90 -34 -186q0 -14 4 -77.5t60 -168t167 -188.5t279.5 -134t399.5 -50q259 0 541.5 62.5t541.5 180.5q174 -105 357.5 -172t380.5 -71q265 2 443 111t267 286.5t89 371.5q0 203 -70.5 354t-192.5 251t-277.5 149t-330.5 49z" />
    <glyph glyph-name="braceright" unicode="}" horiz-adv-x="1029" 
d="M581 263q37 0 53 2q98 9 164 54t131 163l-33 -2q-187 -17 -293 -152q11 30 20 61l18 63q25 92 51 206q87 114 87 235q0 67 -25 140q-130 -135 -131 -297q0 -23 3 -47q-25 -129 -70 -273q0 50 -4 148q-14 215 -86 453l33 19q83 55 121 127t39 207l-23 -15
q-161 -104 -191 -276q-41 122 -93 234q-20 192 -221 283q13 -215 165 -327q104 -226 154 -476q-59 80 -129 105.5t-168 25.5l-33 -1l2 -1q127 -193 342 -203l5 -42q18 -123 18 -239q0 -58 -4 -115q-16 44 -39 77q-27 42 -78.5 80t-169.5 67q70 -223 279 -290
q-29 -208 -223 -454q11 45 11 89q0 48 -21 107t-105 149q-20 -71 -20 -141q0 -140 92 -255q-47 -51 -96 -95q-13 -11 -13 -26q0 -12 10 -23t26 -12q13 0 22 9q142 123 255 309q86 -33 154 -34q28 0 83 11t162 95q-89 33 -172 33q-104 0 -197 -54q78 136 138 298z" />
    <glyph glyph-name="asciitilde" unicode="~" 
d="M305 580q-48 0 -124 -79q-18 -19 -34 -19q-12 0 -22 9q-25 24 -25 46q0 15 13 29q113 109 198 109q55 0 149 -59.5t135 -59.5q48 0 124 80q18 19 34 19q12 0 22 -9q25 -25 25 -46q0 -15 -13 -29q-113 -109 -198 -109q-55 0 -149 59t-135 59z" />
    <glyph glyph-name="exclamdown" unicode="&#xa1;" horiz-adv-x="497" 
d="M253 763q30 0 50.5 -16t20.5 -70q0 -132 19 -292.5t40 -310.5q37 -264 37 -340q0 -148 -186 -148q-47 0 -83.5 8.5t-58 41.5t-21.5 104q0 118 15 236.5t34 236.5t33.5 236t14.5 236q0 42 27.5 60t57.5 18zM246 1062q47 0 81 -33.5t34 -81.5t-34 -81.5t-81 -33.5
q-48 0 -81.5 33.5t-33.5 81.5t33.5 81.5t81.5 33.5z" />
    <glyph glyph-name="cent" unicode="&#xa2;" horiz-adv-x="962" 
d="M492 96q29 -19 69 -19q51 0 90 34.5t67 92.5t44 125q13 52 64 52q77 0 77 -57q0 -10 -3 -23q-86 -359 -379 -359q-41 0 -79 7q-36 -104 -72 -209q-7 -18 -24 -18q-28 0 -47 14.5t-19 27.5q0 16 62 216q-21 10 -41 23q-96 60 -148.5 177t-52.5 289q0 193 52.5 344
t157.5 240t262 89q75 0 134 -28q27 84 53 164q8 26 46 26q25 0 46.5 -14t21.5 -31q0 -24 -66 -228q73 -94 103 -265l2 -16q0 -55 -79 -55q-48 0 -55 39q-11 63 -31 114q-16 -48 -34 -101q-105 -313 -221 -651zM662 976q-33 27 -70 27q-47 0 -94 -57q-108 -132 -108 -495
q0 -27 1.5 -70t10.5 -98q5 -36 15 -68q17 53 36 112q112 350 209 649z" />
    <glyph glyph-name="sterling" unicode="&#xa3;" horiz-adv-x="937" 
d="M782 -26q-11 0 -23 5q-48 20 -148 20l-368 -1q-73 0 -73 47q0 96 56 234q30 73 30 167q0 83 -36 238.5t-36 268.5q0 140 71 226q86 104 274 104q136 0 222 -79t86 -203q0 -122 -71 -123q-27 0 -36.5 26t-9.5 47q0 42 -16 90t-52 82.5t-95 34.5q-70 0 -91 -65
q-13 -42 -13 -121q0 -147 37 -401q7 -47 7 -92q0 -199 -135 -361q160 26 227 26q30 0 92 -2q156 -7 156 -98q0 -25 -12 -45q-15 -25 -43 -25zM754 537h-608q-46 0 -46 34q0 61 46 61h608q46 0 46 -34q0 -61 -46 -61z" />
    <glyph glyph-name="currency" unicode="&#xa4;" horiz-adv-x="802" 
d="M401 394q72 0 123 51t51 123t-51 123t-123 51t-123 -51t-51 -123t51 -123t123 -51zM625 412l55 -55q22 -23 22 -41q0 -12 -9 -21q-23 -23 -44 -23q-19 0 -36 18l-55 55q-68 -49 -157 -49q-88 0 -157 49l-55 -55q-23 -23 -40 -23q-12 0 -21 9q-23 23 -23 45q0 18 17 36
l56 56q-48 67 -48 155t48 156l-56 56q-22 23 -22 41q0 12 9 21q23 23 44 23q19 0 36 -18l56 -56q68 49 156 49t156 -49l56 56q23 23 40 23q12 0 21 -9q23 -23 23 -45q0 -18 -17 -36l-56 -56q49 -67 49 -156q0 -88 -48 -156z" />
    <glyph glyph-name="yen" unicode="&#xa5;" 
d="M290 563q-37 33 -67 83q-74 123 -104 300q-16 99 -16 174q0 44 5 72q16 93 115 93q49 0 85 -22.5t36 -60.5q0 -230 27 -390q30 -181 94 -181q37 0 73 65.5t76 232.5q34 140 39 296q1 47 73 47t72 -51q0 -99 -17.5 -197.5t-52.5 -197t-77 -168.5q-34 -56 -74 -95h177
q46 0 46 -34q0 -61 -46 -61h-187v-99h187q46 0 46 -34q0 -61 -46 -61h-186v-150q0 -49 -16.5 -80t-42 -45t-54.5 -14q-51 0 -86 33t-35 87v169h-188q-46 0 -46 34q0 61 46 61h188v99h-188q-46 0 -46 34q0 61 46 61h144z" />
    <glyph glyph-name="section" unicode="&#xa7;" horiz-adv-x="943" 
d="M316 862q-24 33 -42 72q-31 65 -31 152q0 108 67 184q84 94 247 94q74 0 131.5 -30.5t88.5 -79.5t31 -106q0 -138 -77 -138q-51 0 -51 54q0 35 -12 77q-26 90 -90 90q-32 0 -52.5 -15t-31 -42t-10.5 -58q0 -60 24 -106.5t62 -85.5t84 -78t89.5 -84t71.5 -100.5t28 -129.5
q0 -81 -38.5 -152.5t-116.5 -116.5q-29 -17 -61 -27q23 -34 42 -72q31 -66 31 -152q0 -109 -68 -185q-83 -93 -246 -93q-75 0 -132 30t-88 79t-31 106q0 138 76 138q52 0 52 -54q0 -35 12 -76q26 -90 90 -90q32 0 52 14.5t30.5 42t10.5 57.5q0 61 -24 107t-62 85t-83.5 78
t-89 84t-71.5 101t-28 129q0 81 38.5 152.5t117.5 117.5q27 16 60 27zM514 358q24 11 41 36q29 44 29 122q0 40 -19 74t-50 66t-68 65q-10 9 -19 18q-23 -11 -39 -35q-30 -44 -30 -122q0 -41 18.5 -74.5t49.5 -66t68 -65.5q10 -9 19 -18z" />
    <glyph glyph-name="dieresis" unicode="&#xa8;" horiz-adv-x="700" 
d="M210 1140q-45 0 -77.5 32.5t-32.5 77.5q0 46 32.5 78.5t77.5 32.5q46 0 78.5 -32.5t32.5 -78.5q0 -45 -32.5 -77.5t-78.5 -32.5zM489 1140q-45 0 -77.5 32.5t-32.5 77.5q0 46 32.5 78.5t77.5 32.5q46 0 78.5 -32.5t32.5 -78.5q0 -45 -32.5 -77.5t-78.5 -32.5z" />
    <glyph glyph-name="copyright" unicode="&#xa9;" horiz-adv-x="1583" 
d="M805 348q-94 0 -170 41.5t-120.5 124t-44.5 206.5q0 139 41.5 246.5t122 169t197.5 61.5q92 0 142 -56q43 -48 43 -112q0 -38 -10 -67t-33 -29q-27 0 -27 33q0 50 -22 95q-27 54 -76 54q-47 0 -87.5 -44.5t-65.5 -130t-25 -208.5q0 -22 3.5 -60t14.5 -80t31 -79.5
t52.5 -61.5t79.5 -24q45 0 84.5 20t61.5 50q12 15 28 15q11 0 17.5 -6.5t6.5 -15.5q0 -7 -4 -15q-19 -33 -54 -62t-83 -47t-103 -18zM790 32q-301 0 -514 213t-213 514t213 514t514 213t513.5 -213t212.5 -514t-212.5 -514t-513.5 -213zM790 105q271 0 462.5 191.5
t191.5 462.5t-191.5 462.5t-462.5 191.5t-462.5 -191.5t-191.5 -462.5t191.5 -462.5t462.5 -191.5z" />
    <glyph glyph-name="guillemotleft" unicode="&#xab;" horiz-adv-x="855" 
d="M396 221q-19 0 -36 18l-240 240q-20 20 -20 39q0 20 20 39l240 239q23 23 40 23q12 0 21 -9q23 -23 23 -45q0 -18 -17 -36l-212 -211l212 -212q22 -23 22 -41q0 -12 -9 -21q-23 -23 -44 -23zM703 221q-19 0 -36 18l-240 240q-20 20 -20 39q0 20 20 39l240 239
q23 23 40 23q12 0 21 -9q23 -23 23 -45q0 -18 -17 -36l-212 -211l212 -212q22 -23 22 -41q0 -12 -9 -21q-23 -23 -44 -23z" />
    <glyph glyph-name="logicalnot" unicode="&#xac;" 
d="M705 521h-559q-46 0 -46 34q0 61 46 61h608q46 0 46 -34v-307q0 -45 -61 -45q-34 0 -34 45v246z" />
    <glyph glyph-name="registered" unicode="&#xae;" horiz-adv-x="1653" 
d="M622 290q-12 0 -38 5.5t-47 36.5q-9 17 -9 36q0 22 2 46q10 81 10 227q0 207 -24 431q-3 31 -7 54.5t-4 47.5q0 25 24.5 42t52.5 17q40 0 63 -16q42 -28 54 -102q6 -45 7 -68q12 31 26 58q75 150 223 150q63 0 106 -26t65 -70t22 -98q0 -55 -20.5 -101t-52 -83.5t-67 -68
t-67.5 -54.5t-53 -43t-21 -33q0 -39 38.5 -85t94.5 -86.5t112 -63.5q36 -15 36 -46q0 -21 -14 -38t-41 -17q-53 0 -108 36.5t-101.5 81.5t-82 107t-35.5 107q0 23 24 50.5t50 51.5q30 27 60 62.5t51.5 86t21.5 122.5q0 51 -20.5 83.5t-52.5 32.5q-57 0 -95 -49.5t-58 -136.5
q-21 -90 -21 -181l1 -157q0 -142 -13 -276q-6 -43 -41 -61q-24 -12 -51 -12zM827 105q271 0 462.5 191.5t191.5 462.5t-191.5 462.5t-462.5 191.5t-462.5 -191.5t-191.5 -462.5t191.5 -462.5t462.5 -191.5zM827 32q-301 0 -514 213t-213 514t213 514t514 213t513.5 -213
t212.5 -514t-212.5 -514t-513.5 -213z" />
    <glyph glyph-name="macron" unicode="&#xaf;" horiz-adv-x="800" 
d="M660 1315h-520q-40 0 -40 34q0 61 40 61h520q40 0 40 -34q0 -61 -40 -61z" />
    <glyph glyph-name="degree" unicode="&#xb0;" horiz-adv-x="394" 
d="M268 1076q0 52 -12 86q-13 36 -38 36t-37 -35.5t-12 -86.5q0 -35 8 -71q13 -54 42 -54q28 0 40 52q9 38 9 73zM348 1077q0 -20 -2 -47t-10 -55.5t-24 -52.5t-44 -39t-71 -15t-70.5 15t-44 39.5t-24 52.5t-10 55t-2.5 47q0 19 2.5 46t10 55t24 52.5t44 39.5t69.5 15
q43 0 71 -15t44.5 -39t24.5 -52t10 -55.5t2 -46.5z" />
    <glyph glyph-name="plusminus" unicode="&#xb1;" 
d="M754 521h-608q-46 0 -46 34q0 61 46 61h608q46 0 46 -34q0 -61 -46 -61zM403 863q0 45 61 45q34 0 34 -45v-588q0 -45 -61 -45q-34 0 -34 45v588zM754 0h-608q-46 0 -46 34q0 61 46 61h608q46 0 46 -34q0 -61 -46 -61z" />
    <glyph glyph-name="uni00B2" unicode="&#xb2;" horiz-adv-x="572" 
d="M466 458q-13 0 -24 4q-28 11 -87 11l-240 -1q-73 0 -73 48q0 71 83 184q25 35 55 80q121 180 121 292q0 45 -8 68.5t-34 23.5q-50 0 -71 -56q-9 -26 -9 -48q0 -64 -56 -64q-72 1 -72 94q0 82 63.5 135.5t162.5 53.5q136 0 200 -71q51 -57 51 -147q0 -71 -32.5 -137
t-79.5 -125.5t-95 -111.5q-69 -75 -84 -100q57 9 103 9l61 -2q127 -5 127 -78q0 -20 -12 -38q-16 -24 -50 -24z" />
    <glyph glyph-name="uni00B3" unicode="&#xb3;" horiz-adv-x="524" 
d="M225 472q-46 0 -86.5 15t-66 45t-25.5 73q0 25 16 54.5t55 29.5q48 0 48 -54q0 -20 12.5 -33.5t26.5 -13.5q19 0 37 14t30 41.5t12 58.5q0 28 -7.5 52.5t-28 48t-56.5 47.5q-26 17 -26 44q0 32 25 50q34 25 54 73t20 92q0 56 -24 56q-22 0 -44 -27t-22 -74
q0 -16 -9.5 -40t-45.5 -24q-73 1 -73 94q0 96 76 148q58 41 142 41q58 0 104 -20t73 -58.5t27 -95.5q0 -44 -20.5 -87t-52.5 -78.5t-41 -40.5q48 -24 85.5 -85t37.5 -127q0 -73 -37.5 -122t-95.5 -73t-120 -24z" />
    <glyph glyph-name="acute" unicode="&#xb4;" horiz-adv-x="473" 
d="M132 1140q-14 0 -23 9.5t-9 20.5q0 9 8 21l139 220q15 23 41 23t60 -16q25 -12 25 -32q0 -27 -206 -232q-15 -14 -35 -14z" />
    <glyph glyph-name="paragraph" unicode="&#xb6;" horiz-adv-x="976" 
d="M750 1255v-1455q0 -32 -72 -32t-72 32v1455h-153v-1455q0 -32 -72 -32t-72 32v975q-209 45 -209 335q0 26 2.5 63.5t10 76.5t24 73t60 55t123.5 21h509q47 0 47 -72t-47 -72h-79z" />
    <glyph glyph-name="periodcentered" unicode="&#xb7;" horiz-adv-x="508" 
d="M136.246 612.351q-40.7988 0 -69.2734 28.4736q-28.4736 28.4746 -28.4736 69.2734t28.4736 69.2725q28.4746 28.4746 69.2734 28.4746t69.2725 -28.4746q28.4746 -28.4736 28.4746 -69.2725t-28.4746 -69.2734q-28.4736 -28.4736 -69.2725 -28.4736z" />
    <glyph glyph-name="periodcentered" unicode="&#x2219;" horiz-adv-x="508" 
d="M136.246 612.351q-40.7988 0 -69.2734 28.4736q-28.4736 28.4746 -28.4736 69.2734t28.4736 69.2725q28.4746 28.4746 69.2734 28.4746t69.2725 -28.4746q28.4746 -28.4736 28.4746 -69.2725t-28.4746 -69.2734q-28.4736 -28.4736 -69.2725 -28.4736z" />
    <glyph glyph-name="cedilla" unicode="&#xb8;" horiz-adv-x="373" 
d="M100 -76q0 51 90 117q13 10 28 10q21 0 46 -16q9 -6 9 -13q0 -9 -18 -22q-61 -44 -61 -73q0 -24 39.5 -81t39.5 -90q0 -51 -90 -117q-13 -9 -28 -9q-22 0 -46 15q-9 6 -9 13q0 9 18 22q60 44 60 73q0 24 -39 81t-39 90z" />
    <glyph glyph-name="uni00B9" unicode="&#xb9;" horiz-adv-x="445" 
d="M271 465q-45 0 -75 26t-30 66v538q-22 -19 -44.5 -38t-50.5 -19q-7 0 -13 1q-37 7 -41.5 25t-4.5 23q0 24 25 46l116 105q24 21 43 31.5t33.5 13t25.5 2.5q25 0 51.5 -11t45 -34t18.5 -58v-614q0 -33 -13.5 -56.5t-36.5 -35t-49 -11.5z" />
    <glyph glyph-name="ordmasculine" unicode="&#xba;" horiz-adv-x="801" 
d="M396 235q-100 0 -176 45.5t-118 133.5t-42 217q0 145 41.5 258.5t126 180.5t209.5 67q156 0 226 -145q58 -119 58 -294q0 -193 -71 -318q-82 -145 -254 -145zM431 371q37 0 65 23t48 62.5t31.5 85t16 87t4.5 67.5q0 154 -51 236q-42 66 -92 66q-34 0 -68 -39
q-77 -88 -77 -335q0 -253 123 -253zM664 3h-4q-140 16 -272 16q-128 0 -250 -15h-7q-32 0 -32 35q0 71 39 76q122 15 250 15q132 0 272 -16q39 -4 39 -43q0 -68 -35 -68z" />
    <glyph glyph-name="guillemotright" unicode="&#xbb;" horiz-adv-x="855" 
d="M153 221q-21 0 -44 23q-9 9 -9 21q0 18 22 41l212 212l-212 211q-17 18 -17 36q0 22 23 45q9 9 21 9q17 0 40 -23l240 -239q20 -19 20 -39q0 -19 -20 -39l-240 -240q-17 -18 -36 -18zM460 221q-21 0 -44 23q-9 9 -9 21q0 18 22 41l212 212l-212 211q-17 18 -17 36
q0 22 23 45q9 9 21 9q17 0 40 -23l240 -239q20 -19 20 -39q0 -19 -20 -39l-240 -240q-17 -18 -36 -18z" />
    <glyph glyph-name="onequarter" unicode="&#xbc;" horiz-adv-x="1282" 
d="M271 465q-45 0 -75 26t-30 66v538q-22 -19 -44.5 -38t-50.5 -19q-7 0 -13 1q-37 7 -41.5 25t-4.5 23q0 24 25 46l116 105q24 21 43 31.5t33.5 13t25.5 2.5q25 0 51.5 -11t45 -34t18.5 -58v-614q0 -33 -13.5 -56.5t-36.5 -35t-49 -11.5zM411 -34q-28 0 -47 14.5t-19 27.5
q0 34 397 1270q8 26 46 26q25 0 46.5 -14t21.5 -31q0 -53 -422 -1275q-6 -18 -23 -18zM899 293q41 6 83 6v227q-5 -17 -19 -52q-33 -85 -64 -181zM1087 0q-45 0 -75 26.5t-30 65.5v97q-77 0 -137 -7q-19 -2 -36 -2q-71 0 -72 46q0 69 83 249.5t168 288.5q43 54 82 54
q64 0 90 -28.5t26 -92.5v-414q69 -15 69 -59q0 -10 -5 -22q-17 -38 -58 -38h-6v-60q0 -34 -13.5 -57t-36.5 -35t-49 -12z" />
    <glyph glyph-name="onehalf" unicode="&#xbd;" horiz-adv-x="1278" 
d="M271 465q-45 0 -75 26t-30 66v538q-22 -19 -44.5 -38t-50.5 -19q-7 0 -13 1q-37 7 -41.5 25t-4.5 23q0 24 25 46l116 105q24 21 43 31.5t33.5 13t25.5 2.5q25 0 51.5 -11t45 -34t18.5 -58v-614q0 -33 -13.5 -56.5t-36.5 -35t-49 -11.5zM411 -34q-28 0 -47 14.5t-19 27.5
q0 34 397 1270q8 26 46 26q25 0 46.5 -14t21.5 -31q0 -53 -422 -1275q-6 -18 -23 -18zM1172 0q-13 0 -24 4q-28 11 -87 11l-240 -1q-73 0 -73 48q0 71 83 184q25 35 55 80q121 180 121 292q0 45 -8 68.5t-34 23.5q-50 0 -71 -56q-9 -26 -9 -48q0 -64 -56 -64q-72 1 -72 94
q0 82 63.5 135.5t162.5 53.5q136 0 200 -71q51 -57 51 -147q0 -71 -32.5 -137t-79.5 -125.5t-95 -111.5q-69 -75 -84 -100q57 9 103 9l61 -2q127 -5 127 -78q0 -20 -12 -38q-16 -24 -50 -24z" />
    <glyph glyph-name="threequarters" unicode="&#xbe;" horiz-adv-x="1361" 
d="M225 472q-46 0 -86.5 15t-66 45t-25.5 73q0 25 16 54.5t55 29.5q48 0 48 -54q0 -20 12.5 -33.5t26.5 -13.5q19 0 37 14t30 41.5t12 58.5q0 28 -7.5 52.5t-28 48t-56.5 47.5q-26 17 -26 44q0 32 25 50q34 25 54 73t20 92q0 56 -24 56q-22 0 -44 -27t-22 -74
q0 -16 -9.5 -40t-45.5 -24q-73 1 -73 94q0 96 76 148q58 41 142 41q58 0 104 -20t73 -58.5t27 -95.5q0 -44 -20.5 -87t-52.5 -78.5t-41 -40.5q48 -24 85.5 -85t37.5 -127q0 -73 -37.5 -122t-95.5 -73t-120 -24zM490 -34q-28 0 -47 14.5t-19 27.5q0 34 397 1270q8 26 46 26
q25 0 46.5 -14t21.5 -31q0 -53 -422 -1275q-6 -18 -23 -18zM978 293q41 6 83 6v227q-5 -17 -19 -52q-33 -85 -64 -181zM1166 0q-45 0 -75 26.5t-30 65.5v97q-77 0 -137 -7q-19 -2 -36 -2q-71 0 -72 46q0 69 83 249.5t168 288.5q43 54 82 54q64 0 90 -28.5t26 -92.5v-414
q69 -15 69 -59q0 -10 -5 -22q-17 -38 -58 -38h-6v-60q0 -34 -13.5 -57t-36.5 -35t-49 -12z" />
    <glyph glyph-name="questiondown" unicode="&#xbf;" horiz-adv-x="681" 
d="M455 1062q47 0 81 -33.5t34 -81.5t-34 -81.5t-81 -33.5q-48 0 -81.5 33.5t-33.5 81.5t33.5 81.5t81.5 33.5zM288 -103q0 -79 13 -121q21 -65 91 -65q59 0 95 34.5t52 82.5t16 90q0 21 9.5 47t36.5 26q71 -1 71 -123q0 -124 -86 -203t-222 -79q-188 0 -274 104
q-71 86 -71 226q0 151 179 401t179 368q0 42 27.5 60t57.5 18t50.5 -16t20.5 -70q0 -132 -122.5 -366t-122.5 -414z" />
    <glyph glyph-name="Agrave" unicode="&#xc0;" horiz-adv-x="1183" 
d="M270 275q-12 -157 -19 -287q-7 -118 -112 -118q-82 0 -82 94q0 44 31 285q130 1001 486 1001q380 0 446 -743q19 -212 19 -549q0 -104 2 -217q0 -47 -21.5 -77t-58.5 -44.5t-78 -14.5q-132 0 -132 133q0 231 -118.5 384t-362.5 153zM531 1104q-86 0 -149 -190
q-74 -234 -103 -535q293 0 461 -205q-2 58 -5 112l-6 102q-30 472 -112 643q-36 73 -86 73zM573 1364q-206 205 -206 232q0 20 25 32q34 16 60 16t41 -23l139 -220q8 -12 8 -21q0 -11 -9 -20.5t-23 -9.5q-20 0 -35 14z" />
    <glyph glyph-name="Aacute" unicode="&#xc1;" horiz-adv-x="1183" 
d="M270 275q-12 -157 -19 -287q-7 -118 -112 -118q-82 0 -82 94q0 44 31 285q130 1001 486 1001q380 0 446 -743q19 -212 19 -549q0 -104 2 -217q0 -47 -21.5 -77t-58.5 -44.5t-78 -14.5q-132 0 -132 133q0 231 -118.5 384t-362.5 153zM531 1104q-86 0 -149 -190
q-74 -234 -103 -535q293 0 461 -205q-2 58 -5 112l-6 102q-30 472 -112 643q-36 73 -86 73zM490 1350q-14 0 -23 9.5t-9 20.5q0 9 8 21l139 220q15 23 41 23t60 -16q25 -12 25 -32q0 -27 -206 -232q-15 -14 -35 -14z" />
    <glyph glyph-name="Acircumflex" unicode="&#xc2;" horiz-adv-x="1183" 
d="M270 275q-12 -157 -19 -287q-7 -118 -112 -118q-82 0 -82 94q0 44 31 285q130 1001 486 1001q380 0 446 -743q19 -212 19 -549q0 -104 2 -217q0 -47 -21.5 -77t-58.5 -44.5t-78 -14.5q-132 0 -132 133q0 231 -118.5 384t-362.5 153zM531 1104q-86 0 -149 -190
q-74 -234 -103 -535q293 0 461 -205q-2 58 -5 112l-6 102q-30 472 -112 643q-36 73 -86 73zM728 1350q-31 0 -179 162q-147 -162 -178 -162q-14 0 -23 9.5t-9 20.5q0 9 8 21l139 220q15 23 64 23q48 0 63 -23l139 -220q8 -12 8 -21q0 -11 -9 -20.5t-23 -9.5z" />
    <glyph glyph-name="Atilde" unicode="&#xc3;" horiz-adv-x="1183" 
d="M270 275q-12 -157 -19 -287q-7 -118 -112 -118q-82 0 -82 94q0 44 31 285q130 1001 486 1001q380 0 446 -743q19 -212 19 -549q0 -104 2 -217q0 -47 -21.5 -77t-58.5 -44.5t-78 -14.5q-132 0 -132 133q0 231 -118.5 384t-362.5 153zM531 1104q-86 0 -149 -190
q-74 -234 -103 -535q293 0 461 -205q-2 58 -5 112l-6 102q-30 472 -112 643q-36 73 -86 73zM657 1350q-33 0 -89.5 39t-81.5 39q-29 0 -72 -60q-13 -18 -23 -18q-7 0 -13 9q-15 24 -15 46q0 15 9 28q67 90 118 90q33 0 89.5 -39.5t81.5 -39.5q29 0 72 61q13 18 23 18
q7 0 13 -9q15 -25 15 -46q0 -15 -9 -28q-67 -90 -118 -90z" />
    <glyph glyph-name="Adieresis" unicode="&#xc4;" horiz-adv-x="1183" 
d="M270 275q-12 -157 -19 -287q-7 -118 -112 -118q-82 0 -82 94q0 44 31 285q130 1001 486 1001q380 0 446 -743q19 -212 19 -549q0 -104 2 -217q0 -47 -21.5 -77t-58.5 -44.5t-78 -14.5q-132 0 -132 133q0 231 -118.5 384t-362.5 153zM531 1104q-86 0 -149 -190
q-74 -234 -103 -535q293 0 461 -205q-2 58 -5 112l-6 102q-30 472 -112 643q-36 73 -86 73zM409 1350q-45 0 -77.5 32.5t-32.5 77.5q0 46 32.5 78.5t77.5 32.5q46 0 78.5 -32.5t32.5 -78.5q0 -45 -32.5 -77.5t-78.5 -32.5zM688 1350q-45 0 -77.5 32.5t-32.5 77.5
q0 46 32.5 78.5t77.5 32.5q46 0 78.5 -32.5t32.5 -78.5q0 -45 -32.5 -77.5t-78.5 -32.5z" />
    <glyph glyph-name="Aring" unicode="&#xc5;" horiz-adv-x="1183" 
d="M270 275q-12 -157 -19 -287q-7 -118 -112 -118q-82 0 -82 94q0 44 31 285q130 1001 486 1001q380 0 446 -743q19 -212 19 -549q0 -104 2 -217q0 -47 -21.5 -77t-58.5 -44.5t-78 -14.5q-132 0 -132 133q0 231 -118.5 384t-362.5 153zM531 1104q-86 0 -149 -190
q-74 -234 -103 -535q293 0 461 -205q-2 58 -5 112l-6 102q-30 472 -112 643q-36 73 -86 73zM549 1350q-70 0 -120 50t-50 120q0 71 50 121t120 50q71 0 121 -50t50 -121q0 -70 -50 -120t-121 -50zM549 1420q42 0 71.5 29.5t29.5 70.5q0 42 -29.5 71.5t-71.5 29.5
q-41 0 -70.5 -29.5t-29.5 -71.5q0 -41 29.5 -70.5t70.5 -29.5z" />
    <glyph glyph-name="AE" unicode="&#xc6;" horiz-adv-x="1551" 
d="M531 1104q-86 0 -149 -190q-74 -234 -103 -535q293 0 461 -205q-2 58 -5 112l-6 102q-30 472 -112 643q-36 73 -86 73zM1039 -123q1 -66 2 -136q0 -47 -21.5 -77t-58.5 -44.5t-78 -14.5q-132 0 -132 133q0 231 -118.5 384t-362.5 153q-12 -157 -19 -287
q-7 -118 -112 -118q-82 0 -82 94q0 44 31 285q130 1001 486 1001q141 0 238 -102q39 77 138 91q75 11 158 11q197 0 353 -44q50 -14 50 -50q0 -11 -5 -25q-18 -44 -57 -44q-10 0 -22 3q-127 36 -288 40q-38 0 -54 -49q-37 -107 -39 -508q50 3 101 3q272 0 272 -67
q0 -28 -30 -42q-18 -8 -36 -8q-8 0 -17 2q-89 17 -191 17q-49 0 -99 -3q4 -258 36 -395q19 -86 95 -86q111 0 250 40q12 3 22 3q39 0 57 -44q5 -14 5 -25q0 -36 -50 -50q-156 -44 -353 -44q-36 0 -69 3z" />
    <glyph glyph-name="Ccedilla" unicode="&#xc7;" horiz-adv-x="1187" 
d="M584 -188q-136 7 -243 72q-121 72 -189 216t-68 359q0 243 68.5 430.5t202.5 294.5t330 107q318 0 415 -410q6 -24 6 -42q0 -63 -63 -63q-51 0 -66 61q-27 109 -70.5 178t-94.5 101t-99 32q-79 0 -146 -77q-149 -171 -151 -603q0 -45 2.5 -109.5t14 -135t38.5 -132.5
t75 -102t125 -40q81 0 138.5 48t95.5 123.5t60 160.5q12 50 65 50q71 0 71 -51q0 -10 -3 -22q-28 -118 -81 -212q-112 -201 -326 -230q-29 -27 -29 -47q0 -24 39.5 -81t39.5 -90q0 -51 -90 -117q-13 -9 -28 -9q-22 0 -46 15q-9 6 -9 13q0 9 18 22q60 44 60 73q0 24 -39 81
t-39 90q0 22 16 46z" />
    <glyph glyph-name="Egrave" unicode="&#xc8;" horiz-adv-x="937" 
d="M493 -146q-202 0 -275.5 84t-81.5 191q-18 238 -18 395q0 273 24 419q12 77 48 169t145 107q75 11 158 11q197 0 353 -44q50 -14 50 -50q0 -11 -5 -25q-18 -44 -57 -44q-10 0 -22 3q-127 36 -288 40q-38 0 -54 -49q-37 -107 -39 -508q50 3 101 3q272 0 272 -67
q0 -28 -30 -42q-18 -8 -36 -8q-8 0 -17 2q-89 17 -191 17q-49 0 -99 -3q4 -258 36 -395q19 -86 95 -86q111 0 250 40q12 3 22 3q39 0 57 -44q5 -14 5 -25q0 -36 -50 -50q-156 -44 -353 -44zM531 1364q-206 205 -206 232q0 20 25 32q34 16 60 16t41 -23l139 -220q8 -12 8 -21
q0 -11 -9 -20.5t-23 -9.5q-20 0 -35 14z" />
    <glyph glyph-name="Eacute" unicode="&#xc9;" horiz-adv-x="937" 
d="M493 -146q-202 0 -275.5 84t-81.5 191q-18 238 -18 395q0 273 24 419q12 77 48 169t145 107q75 11 158 11q197 0 353 -44q50 -14 50 -50q0 -11 -5 -25q-18 -44 -57 -44q-10 0 -22 3q-127 36 -288 40q-38 0 -54 -49q-37 -107 -39 -508q50 3 101 3q272 0 272 -67
q0 -28 -30 -42q-18 -8 -36 -8q-8 0 -17 2q-89 17 -191 17q-49 0 -99 -3q4 -258 36 -395q19 -86 95 -86q111 0 250 40q12 3 22 3q39 0 57 -44q5 -14 5 -25q0 -36 -50 -50q-156 -44 -353 -44zM448 1350q-14 0 -23 9.5t-9 20.5q0 9 8 21l139 220q15 23 41 23t60 -16
q25 -12 25 -32q0 -27 -206 -232q-15 -14 -35 -14z" />
    <glyph glyph-name="Ecircumflex" unicode="&#xca;" horiz-adv-x="937" 
d="M493 -146q-202 0 -275.5 84t-81.5 191q-18 238 -18 395q0 273 24 419q12 77 48 169t145 107q75 11 158 11q197 0 353 -44q50 -14 50 -50q0 -11 -5 -25q-18 -44 -57 -44q-10 0 -22 3q-127 36 -288 40q-38 0 -54 -49q-37 -107 -39 -508q50 3 101 3q272 0 272 -67
q0 -28 -30 -42q-18 -8 -36 -8q-8 0 -17 2q-89 17 -191 17q-49 0 -99 -3q4 -258 36 -395q19 -86 95 -86q111 0 250 40q12 3 22 3q39 0 57 -44q5 -14 5 -25q0 -36 -50 -50q-156 -44 -353 -44zM686 1350q-31 0 -179 162q-147 -162 -178 -162q-14 0 -23 9.5t-9 20.5q0 9 8 21
l139 220q15 23 64 23q48 0 63 -23l139 -220q8 -12 8 -21q0 -11 -9 -20.5t-23 -9.5z" />
    <glyph glyph-name="Edieresis" unicode="&#xcb;" horiz-adv-x="937" 
d="M493 -146q-202 0 -275.5 84t-81.5 191q-18 238 -18 395q0 273 24 419q12 77 48 169t145 107q75 11 158 11q197 0 353 -44q50 -14 50 -50q0 -11 -5 -25q-18 -44 -57 -44q-10 0 -22 3q-127 36 -288 40q-38 0 -54 -49q-37 -107 -39 -508q50 3 101 3q272 0 272 -67
q0 -28 -30 -42q-18 -8 -36 -8q-8 0 -17 2q-89 17 -191 17q-49 0 -99 -3q4 -258 36 -395q19 -86 95 -86q111 0 250 40q12 3 22 3q39 0 57 -44q5 -14 5 -25q0 -36 -50 -50q-156 -44 -353 -44zM367 1350q-45 0 -77.5 32.5t-32.5 77.5q0 46 32.5 78.5t77.5 32.5q46 0 78.5 -32.5
t32.5 -78.5q0 -45 -32.5 -77.5t-78.5 -32.5zM646 1350q-45 0 -77.5 32.5t-32.5 77.5q0 46 32.5 78.5t77.5 32.5q46 0 78.5 -32.5t32.5 -78.5q0 -45 -32.5 -77.5t-78.5 -32.5z" />
    <glyph glyph-name="Igrave" unicode="&#xcc;" horiz-adv-x="629" 
d="M317 -160q-58 0 -104.5 32.5t-52.5 101.5q-23 238 -23 469q0 725 86 772q47 25 103 25q65 0 111 -32q43 -29 43 -80q0 -24 -3 -51t-6 -62q-22 -290 -22 -561q0 -241 15 -390q4 -41 4 -76q0 -60 -39 -102q-43 -46 -112 -46zM333 1364q-206 205 -206 232q0 20 25 32
q34 16 60 16t41 -23l139 -220q8 -12 8 -21q0 -11 -9 -20.5t-23 -9.5q-20 0 -35 14z" />
    <glyph glyph-name="Iacute" unicode="&#xcd;" horiz-adv-x="629" 
d="M317 -160q-58 0 -104.5 32.5t-52.5 101.5q-23 238 -23 469q0 725 86 772q47 25 103 25q65 0 111 -32q43 -29 43 -80q0 -24 -3 -51t-6 -62q-22 -290 -22 -561q0 -241 15 -390q4 -41 4 -76q0 -60 -39 -102q-43 -46 -112 -46zM250 1350q-14 0 -23 9.5t-9 20.5q0 9 8 21
l139 220q15 23 41 23t60 -16q25 -12 25 -32q0 -27 -206 -232q-15 -14 -35 -14z" />
    <glyph glyph-name="Icircumflex" unicode="&#xce;" horiz-adv-x="629" 
d="M317 -160q-58 0 -104.5 32.5t-52.5 101.5q-23 238 -23 469q0 725 86 772q47 25 103 25q65 0 111 -32q43 -29 43 -80q0 -24 -3 -51t-6 -62q-22 -290 -22 -561q0 -241 15 -390q4 -41 4 -76q0 -60 -39 -102q-43 -46 -112 -46zM487 1350q-31 0 -179 162q-147 -162 -178 -162
q-14 0 -23 9.5t-9 20.5q0 9 8 21l139 220q15 23 64 23q48 0 63 -23l139 -220q8 -12 8 -21q0 -11 -9 -20.5t-23 -9.5z" />
    <glyph glyph-name="Idieresis" unicode="&#xcf;" horiz-adv-x="629" 
d="M317 -160q-58 0 -104.5 32.5t-52.5 101.5q-23 238 -23 469q0 725 86 772q47 25 103 25q65 0 111 -32q43 -29 43 -80q0 -24 -3 -51t-6 -62q-22 -290 -22 -561q0 -241 15 -390q4 -41 4 -76q0 -60 -39 -102q-43 -46 -112 -46zM169 1350q-45 0 -77.5 32.5t-32.5 77.5
q0 46 32.5 78.5t77.5 32.5q46 0 78.5 -32.5t32.5 -78.5q0 -45 -32.5 -77.5t-78.5 -32.5zM448 1350q-45 0 -77.5 32.5t-32.5 77.5q0 46 32.5 78.5t77.5 32.5q46 0 78.5 -32.5t32.5 -78.5q0 -45 -32.5 -77.5t-78.5 -32.5z" />
    <glyph glyph-name="Eth" unicode="&#xd0;" horiz-adv-x="1451" 
d="M160 615q-11 213 -40 469q-5 43 -8 65t-3 38q0 32 17.5 60.5t47 36.5t62.5 8q102 0 149 -72q233 149 460 149q129 0 236 -67t160 -181.5t66.5 -222.5t13.5 -185q0 -221 -72 -434q-48 -143 -126 -256t-184 -185q-111 -73 -283 -73q-136 0 -237 64q-13 -14 -31 -23
q-40 -21 -85 -21q-99 0 -141 75q-16 30 -16 66q0 11 2 36q18 186 18 412q0 70 -2 146h-81q-46 0 -46 34q0 61 46 61h77zM471 615h220q46 0 46 -34q0 -61 -46 -61h-216q3 -87 3 -176q0 -189 -21 -403q72 -48 170 -48q167 0 269 168q20 37 38 82q85 211 85 569
q0 179 -67.5 333t-235.5 154q-144 0 -290 -110l12 -95q24 -187 33 -379z" />
    <glyph glyph-name="Ntilde" unicode="&#xd1;" horiz-adv-x="1319" 
d="M959 -268q-97 0 -162 141q-138 299 -338 892q-38 113 -48 113q-11 0 -11 -108q0 -160 12 -314q20 -235 36 -531q2 -33 5 -58.5t3 -46.5q0 -49 -42 -78t-103 -29q-53 0 -97 24q-69 38 -69 666q0 437 30 726q21 209 192 209q96 0 128 -93q265 -777 357 -1039q16 -47 28 -47
t14 58q14 305 14 567l-1 352q0 86 120 86q27 0 54 -7q60 -17 64 -73q11 -159 11 -321q0 -381 -35 -786q-13 -141 -54.5 -222t-107.5 -81zM789 1424q-33 0 -89.5 39t-81.5 39q-29 0 -72 -60q-13 -18 -23 -18q-7 0 -13 9q-15 24 -15 46q0 15 9 28q67 90 118 90
q33 0 89.5 -39.5t81.5 -39.5q29 0 72 61q13 18 23 18q7 0 13 -9q15 -25 15 -46q0 -15 -9 -28q-67 -90 -118 -90z" />
    <glyph glyph-name="Ograve" unicode="&#xd2;" horiz-adv-x="1226" 
d="M595 -156q-156 0 -276.5 69t-188.5 207t-68 343q0 232 68.5 411.5t202.5 282t330 102.5q240 0 353 -223q94 -185 94 -466q0 -307 -114 -502q-132 -224 -401 -224zM649 -24q81 0 138.5 46t95.5 117.5t60 153t30.5 156t8.5 121.5q0 149 -27 254t-70.5 171t-94.5 96.5
t-99 30.5q-79 0 -146 -74q-149 -163 -151 -577q0 -42 2.5 -104t14 -129.5t38.5 -127t75 -97t125 -37.5zM610 1364q-206 205 -206 232q0 20 25 32q34 16 60 16t41 -23l139 -220q8 -12 8 -21q0 -11 -9 -20.5t-23 -9.5q-20 0 -35 14z" />
    <glyph glyph-name="Oacute" unicode="&#xd3;" horiz-adv-x="1226" 
d="M595 -156q-156 0 -276.5 69t-188.5 207t-68 343q0 232 68.5 411.5t202.5 282t330 102.5q240 0 353 -223q94 -185 94 -466q0 -307 -114 -502q-132 -224 -401 -224zM649 -24q81 0 138.5 46t95.5 117.5t60 153t30.5 156t8.5 121.5q0 149 -27 254t-70.5 171t-94.5 96.5
t-99 30.5q-79 0 -146 -74q-149 -163 -151 -577q0 -42 2.5 -104t14 -129.5t38.5 -127t75 -97t125 -37.5zM527 1350q-14 0 -23 9.5t-9 20.5q0 9 8 21l139 220q15 23 41 23t60 -16q25 -12 25 -32q0 -27 -206 -232q-15 -14 -35 -14z" />
    <glyph glyph-name="Ocircumflex" unicode="&#xd4;" horiz-adv-x="1226" 
d="M595 -156q-156 0 -276.5 69t-188.5 207t-68 343q0 232 68.5 411.5t202.5 282t330 102.5q240 0 353 -223q94 -185 94 -466q0 -307 -114 -502q-132 -224 -401 -224zM649 -24q81 0 138.5 46t95.5 117.5t60 153t30.5 156t8.5 121.5q0 149 -27 254t-70.5 171t-94.5 96.5
t-99 30.5q-79 0 -146 -74q-149 -163 -151 -577q0 -42 2.5 -104t14 -129.5t38.5 -127t75 -97t125 -37.5zM764 1350q-31 0 -179 162q-147 -162 -178 -162q-14 0 -23 9.5t-9 20.5q0 9 8 21l139 220q15 23 64 23q48 0 63 -23l139 -220q8 -12 8 -21q0 -11 -9 -20.5t-23 -9.5z" />
    <glyph glyph-name="Otilde" unicode="&#xd5;" horiz-adv-x="1226" 
d="M595 -156q-156 0 -276.5 69t-188.5 207t-68 343q0 232 68.5 411.5t202.5 282t330 102.5q240 0 353 -223q94 -185 94 -466q0 -307 -114 -502q-132 -224 -401 -224zM649 -24q81 0 138.5 46t95.5 117.5t60 153t30.5 156t8.5 121.5q0 149 -27 254t-70.5 171t-94.5 96.5
t-99 30.5q-79 0 -146 -74q-149 -163 -151 -577q0 -42 2.5 -104t14 -129.5t38.5 -127t75 -97t125 -37.5zM669 1350q-33 0 -89.5 39t-81.5 39q-29 0 -72 -60q-13 -18 -23 -18q-7 0 -13 9q-15 24 -15 46q0 15 9 28q67 90 118 90q33 0 89.5 -39.5t81.5 -39.5q29 0 72 61
q13 18 23 18q7 0 13 -9q15 -25 15 -46q0 -15 -9 -28q-67 -90 -118 -90z" />
    <glyph glyph-name="Odieresis" unicode="&#xd6;" horiz-adv-x="1226" 
d="M595 -156q-156 0 -276.5 69t-188.5 207t-68 343q0 232 68.5 411.5t202.5 282t330 102.5q240 0 353 -223q94 -185 94 -466q0 -307 -114 -502q-132 -224 -401 -224zM649 -24q81 0 138.5 46t95.5 117.5t60 153t30.5 156t8.5 121.5q0 149 -27 254t-70.5 171t-94.5 96.5
t-99 30.5q-79 0 -146 -74q-149 -163 -151 -577q0 -42 2.5 -104t14 -129.5t38.5 -127t75 -97t125 -37.5zM446 1350q-45 0 -77.5 32.5t-32.5 77.5q0 46 32.5 78.5t77.5 32.5q46 0 78.5 -32.5t32.5 -78.5q0 -45 -32.5 -77.5t-78.5 -32.5zM725 1350q-45 0 -77.5 32.5t-32.5 77.5
q0 46 32.5 78.5t77.5 32.5q46 0 78.5 -32.5t32.5 -78.5q0 -45 -32.5 -77.5t-78.5 -32.5z" />
    <glyph glyph-name="multiply" unicode="&#xd7;" horiz-adv-x="802" 
d="M401 502l-212 -212q-23 -23 -40 -23q-12 0 -21 9q-23 23 -23 45q0 18 17 36l212 212l-212 211q-22 23 -22 41q0 12 9 21q23 23 44 23q19 0 36 -18l212 -212l212 212q23 23 40 23q12 0 21 -9q23 -23 23 -45q0 -18 -17 -36l-212 -211l212 -212q22 -23 22 -41q0 -12 -9 -21
q-23 -23 -44 -23q-19 0 -36 18z" />
    <glyph glyph-name="Oslash" unicode="&#xd8;" horiz-adv-x="1226" 
d="M448 113l390 941q-23 23 -48 38q-51 30 -99 30q-79 0 -146 -74q-149 -163 -151 -577q0 -42 2.5 -104t14 -129t37.5 -125zM649 -24q81 0 138.5 46t95.5 117.5t60 153t30.5 156t8.5 121.5q0 218 -63 362q-114 -270 -397 -917q49 -39 127 -39zM375 -285q-27 0 -47 19
q-17 15 -17 28q0 10 48 130q-152 73 -229 228q-68 138 -68 343q0 232 68.5 411.5t202.5 282t330 102.5q135 0 230 -71l44 106q9 22 41 22q29 0 53 -18q18 -15 18 -30q0 -19 -64 -178q125 -195 125 -520q0 -307 -114 -502q-132 -224 -401 -224q-74 0 -141 16l-56 -129
q-8 -16 -23 -16z" />
    <glyph glyph-name="Ugrave" unicode="&#xd9;" horiz-adv-x="1281" 
d="M632 -136q-407 0 -501 400q-27 115 -30.5 203t-3.5 137q0 181 35 519q6 61 53 89t103 28q64 0 111 -35q41 -32 41 -86q0 -30 -4 -64t-7 -77q-14 -187 -14 -346q0 -636 271 -636q140 0 208 192q64 185 64 519q0 264 -15 414q-3 28 -3 57q0 62 88 62q85 0 93 -61
q29 -244 29 -475q0 -629 -297 -790q-91 -50 -221 -50zM648 1364q-206 205 -206 232q0 20 25 32q34 16 60 16t41 -23l139 -220q8 -12 8 -21q0 -11 -9 -20.5t-23 -9.5q-20 0 -35 14z" />
    <glyph glyph-name="Uacute" unicode="&#xda;" horiz-adv-x="1281" 
d="M632 -136q-407 0 -501 400q-27 115 -30.5 203t-3.5 137q0 181 35 519q6 61 53 89t103 28q64 0 111 -35q41 -32 41 -86q0 -30 -4 -64t-7 -77q-14 -187 -14 -346q0 -636 271 -636q140 0 208 192q64 185 64 519q0 264 -15 414q-3 28 -3 57q0 62 88 62q85 0 93 -61
q29 -244 29 -475q0 -629 -297 -790q-91 -50 -221 -50zM565 1350q-14 0 -23 9.5t-9 20.5q0 9 8 21l139 220q15 23 41 23t60 -16q25 -12 25 -32q0 -27 -206 -232q-15 -14 -35 -14z" />
    <glyph glyph-name="Ucircumflex" unicode="&#xdb;" horiz-adv-x="1281" 
d="M632 -136q-407 0 -501 400q-27 115 -30.5 203t-3.5 137q0 181 35 519q6 61 53 89t103 28q64 0 111 -35q41 -32 41 -86q0 -30 -4 -64t-7 -77q-14 -187 -14 -346q0 -636 271 -636q140 0 208 192q64 185 64 519q0 264 -15 414q-3 28 -3 57q0 62 88 62q85 0 93 -61
q29 -244 29 -475q0 -629 -297 -790q-91 -50 -221 -50zM802 1350q-31 0 -179 162q-147 -162 -178 -162q-14 0 -23 9.5t-9 20.5q0 9 8 21l139 220q15 23 64 23q48 0 63 -23l139 -220q8 -12 8 -21q0 -11 -9 -20.5t-23 -9.5z" />
    <glyph glyph-name="Udieresis" unicode="&#xdc;" horiz-adv-x="1281" 
d="M632 -136q-407 0 -501 400q-27 115 -30.5 203t-3.5 137q0 181 35 519q6 61 53 89t103 28q64 0 111 -35q41 -32 41 -86q0 -30 -4 -64t-7 -77q-14 -187 -14 -346q0 -636 271 -636q140 0 208 192q64 185 64 519q0 264 -15 414q-3 28 -3 57q0 62 88 62q85 0 93 -61
q29 -244 29 -475q0 -629 -297 -790q-91 -50 -221 -50zM484 1350q-45 0 -77.5 32.5t-32.5 77.5q0 46 32.5 78.5t77.5 32.5q46 0 78.5 -32.5t32.5 -78.5q0 -45 -32.5 -77.5t-78.5 -32.5zM763 1350q-45 0 -77.5 32.5t-32.5 77.5q0 46 32.5 78.5t77.5 32.5q46 0 78.5 -32.5
t32.5 -78.5q0 -45 -32.5 -77.5t-78.5 -32.5z" />
    <glyph glyph-name="Yacute" unicode="&#xdd;" horiz-adv-x="1317" 
d="M554 -507q-183 0 -254.5 73.5t-71.5 153.5q0 91 62 91q81 0 81 -91q0 -114 154 -114q119 0 202.5 156t95.5 352q10 177 10 225q-120 -299 -343 -299q-300 0 -365 350q-19 101 -21 176t-2 109q0 144 30 451q6 61 53 89t103 28q65 0 112 -36q42 -32 42 -91q0 -18 -9 -110
q-30 -257 -30 -433q0 -401 141 -401q59 0 109.5 67.5t87.5 183.5q70 223 70 479q0 92 -5 153q-3 29 -3 59q0 61 43 95t111 34q56 0 103 -28t53 -89q34 -446 34 -743q0 -488 -219 -731q-150 -159 -374 -159zM571 1350q-14 0 -23 9.5t-9 20.5q0 9 8 21l139 220q15 23 41 23
t60 -16q25 -12 25 -32q0 -27 -206 -232q-15 -14 -35 -14z" />
    <glyph glyph-name="Thorn" unicode="&#xde;" horiz-adv-x="1250" 
d="M470 130q97 43 169 108q115 102 174 226q17 36 30 68q40 99 40 220q0 80 -25 138q-32 75 -97 75q-99 0 -163 -92q-104 -151 -122 -485q-3 -60 -6 -258zM285 -490q-21 0 -65 10.5t-77 72.5q-16 30 -16 64q0 55 8 117q24 195 24 547q0 424 -28 1000q-3 27 -3 50q0 52 42 81
q47 32 112 32q56 0 103 -25q55 -30 71 -644q126 302 398 302q127 0 202.5 -61t97.5 -139.5t22 -144.5q0 -161 -89 -329q-63 -118 -167 -216q-192 -182 -453 -214q-8 -150 -33 -369q-9 -81 -68 -113q-39 -21 -81 -21z" />
    <glyph glyph-name="germandbls" unicode="&#xdf;" horiz-adv-x="1140" 
d="M277 -260q-39 0 -74 21q-85 50 -85 490q0 283 4 479q13 551 365 551q276 0 276 -225q0 -65 -12 -117t-12 -123q0 -133 170.5 -263.5t170.5 -296.5q0 -109 -68 -185q-83 -93 -246 -93q-75 0 -132 30t-88 79t-31 106q0 138 76 138q52 0 52 -54q0 -35 12 -76q26 -90 90 -90
q32 0 52 14.5t30.5 42t10.5 57.5q0 128 -169 268.5t-169 275.5q0 64 35.5 154.5t35.5 159.5q0 81 -64 81q-56 0 -86 -66t-31 -658q0 -311 23 -524q3 -29 3 -44q0 -29 -14 -59q-26 -53 -65.5 -63t-59.5 -10z" />
    <glyph glyph-name="agrave" unicode="&#xe0;" horiz-adv-x="943" 
d="M228 -133q-36 0 -69 13t-51 39.5t-18 65.5q1 88 2 238t12 282q51 642 355 642q285 0 379 -844q29 -257 29 -291q0 -86 -82 -86q-98 0 -103 138q-2 44 -85 152.5t-240 108.5q-7 -161 -8 -343q0 -115 -121 -115zM668 312q-30 377 -86 559q-43 138 -91 138q-23 0 -45 -47
q-61 -133 -83 -533q179 0 305 -117zM503 1214q-206 205 -206 232q0 20 25 32q34 16 60 16t41 -23l139 -220q8 -12 8 -21q0 -11 -9 -20.5t-23 -9.5q-20 0 -35 14z" />
    <glyph glyph-name="aacute" unicode="&#xe1;" horiz-adv-x="943" 
d="M228 -133q-36 0 -69 13t-51 39.5t-18 65.5q1 88 2 238t12 282q51 642 355 642q285 0 379 -844q29 -257 29 -291q0 -86 -82 -86q-98 0 -103 138q-2 44 -85 152.5t-240 108.5q-7 -161 -8 -343q0 -115 -121 -115zM668 312q-30 377 -86 559q-43 138 -91 138q-23 0 -45 -47
q-61 -133 -83 -533q179 0 305 -117zM391 1200q-14 0 -23 9.5t-9 20.5q0 9 8 21l139 220q15 23 41 23t60 -16q25 -12 25 -32q0 -27 -206 -232q-15 -14 -35 -14z" />
    <glyph glyph-name="acircumflex" unicode="&#xe2;" horiz-adv-x="943" 
d="M228 -133q-36 0 -69 13t-51 39.5t-18 65.5q1 88 2 238t12 282q51 642 355 642q285 0 379 -844q29 -257 29 -291q0 -86 -82 -86q-98 0 -103 138q-2 44 -85 152.5t-240 108.5q-7 -161 -8 -343q0 -115 -121 -115zM668 312q-30 377 -86 559q-43 138 -91 138q-23 0 -45 -47
q-61 -133 -83 -533q179 0 305 -117zM657 1200q-31 0 -179 162q-147 -162 -178 -162q-14 0 -23 9.5t-9 20.5q0 9 8 21l139 220q15 23 64 23q48 0 63 -23l139 -220q8 -12 8 -21q0 -11 -9 -20.5t-23 -9.5z" />
    <glyph glyph-name="atilde" unicode="&#xe3;" horiz-adv-x="943" 
d="M228 -133q-36 0 -69 13t-51 39.5t-18 65.5q1 88 2 238t12 282q51 642 355 642q285 0 379 -844q29 -257 29 -291q0 -86 -82 -86q-98 0 -103 138q-2 44 -85 152.5t-240 108.5q-7 -161 -8 -343q0 -115 -121 -115zM668 312q-30 377 -86 559q-43 138 -91 138q-23 0 -45 -47
q-61 -133 -83 -533q179 0 305 -117zM562 1200q-33 0 -89.5 39t-81.5 39q-29 0 -72 -60q-13 -18 -23 -18q-7 0 -13 9q-15 24 -15 46q0 15 9 28q67 90 118 90q33 0 89.5 -39.5t81.5 -39.5q29 0 72 61q13 18 23 18q7 0 13 -9q15 -25 15 -46q0 -15 -9 -28q-67 -90 -118 -90z" />
    <glyph glyph-name="adieresis" unicode="&#xe4;" horiz-adv-x="943" 
d="M228 -133q-36 0 -69 13t-51 39.5t-18 65.5q1 88 2 238t12 282q51 642 355 642q285 0 379 -844q29 -257 29 -291q0 -86 -82 -86q-98 0 -103 138q-2 44 -85 152.5t-240 108.5q-7 -161 -8 -343q0 -115 -121 -115zM668 312q-30 377 -86 559q-43 138 -91 138q-23 0 -45 -47
q-61 -133 -83 -533q179 0 305 -117zM339 1200q-45 0 -77.5 32.5t-32.5 77.5q0 46 32.5 78.5t77.5 32.5q46 0 78.5 -32.5t32.5 -78.5q0 -45 -32.5 -77.5t-78.5 -32.5zM618 1200q-45 0 -77.5 32.5t-32.5 77.5q0 46 32.5 78.5t77.5 32.5q46 0 78.5 -32.5t32.5 -78.5
q0 -45 -32.5 -77.5t-78.5 -32.5z" />
    <glyph glyph-name="aring" unicode="&#xe5;" horiz-adv-x="943" 
d="M228 -133q-36 0 -69 13t-51 39.5t-18 65.5q1 88 2 238t12 282q51 642 355 642q285 0 379 -844q29 -257 29 -291q0 -86 -82 -86q-98 0 -103 138q-2 44 -85 152.5t-240 108.5q-7 -161 -8 -343q0 -115 -121 -115zM668 312q-30 377 -86 559q-43 138 -91 138q-23 0 -45 -47
q-61 -133 -83 -533q179 0 305 -117zM459 1200q-70 0 -120 50t-50 120q0 71 50 121t120 50q71 0 121 -50t50 -121q0 -70 -50 -120t-121 -50zM459 1270q42 0 71.5 29.5t29.5 70.5q0 42 -29.5 71.5t-71.5 29.5q-41 0 -70.5 -29.5t-29.5 -71.5q0 -41 29.5 -70.5t70.5 -29.5z" />
    <glyph glyph-name="ae" unicode="&#xe6;" horiz-adv-x="1315" 
d="M668 312q-30 377 -86 559q-43 138 -91 138q-23 0 -45 -47q-61 -133 -83 -533q179 0 305 -117zM228 -133q-36 0 -69 13t-51 39.5t-18 65.5q1 88 2 238t12 282q51 642 355 642q137 0 230 -196q17 107 106 124q80 15 170 15q145 0 256 -44q39 -16 39 -52q0 -11 -4 -21
q-17 -40 -64 -40q-14 0 -27 5q-90 34 -169 34q-39 0 -44 -107t-7 -324h127q171 0 171 -64q0 -26 -23 -41q-16 -10 -34 -10q-8 0 -17 2q-46 13 -99 13h-125q0 -304 9 -423q50 4 117 4q29 0 75 -6q68 -9 106.5 -24t38.5 -52q0 -60 -79 -60q-18 0 -35 5q-61 18 -138 18
q-61 0 -170 -20q-22 -4 -40 -4q-76 0 -104 74q-8 21 -17 52q-94 320 -351 320q-7 -161 -8 -343q0 -115 -121 -115z" />
    <glyph glyph-name="ccedilla" unicode="&#xe7;" horiz-adv-x="946" 
d="M499 -62q-157 0 -259 104q-168 171 -168 511q0 414 236 542q85 45 188 45q254 0 349 -236q41 -104 41 -165q0 -59 -66 -59q-65 0 -75 57q-25 152 -95 224q-41 41 -98 41q-81 0 -128 -93q-63 -127 -63 -409q0 -250 78 -360q45 -64 97 -64q65 0 126 88q46 66 71 167
q8 36 51 36q81 0 81 -56q0 -19 -22 -87q-93 -286 -344 -286zM393 -76q0 51 90 117q13 10 28 10q21 0 46 -16q9 -6 9 -13q0 -9 -18 -22q-61 -44 -61 -73q0 -24 39.5 -81t39.5 -90q0 -51 -90 -117q-13 -9 -28 -9q-22 0 -46 15q-9 6 -9 13q0 9 18 22q60 44 60 73q0 24 -39 81
t-39 90z" />
    <glyph glyph-name="egrave" unicode="&#xe8;" horiz-adv-x="758" 
d="M272 -121q-41 0 -73 19t-52 107q-33 145 -33 359q0 516 22 606t102 105t170 15q145 0 256 -44q39 -16 39 -52q0 -11 -4 -21q-17 -40 -64 -40q-14 0 -27 5q-86 33 -145 33q-37 0 -49 -23q-23 -47 -26 -407h127q171 0 171 -64q0 -26 -23 -41q-16 -10 -34 -10q-8 0 -17 2
q-46 13 -99 13h-125q0 -304 9 -423q50 4 117 4q29 0 75 -6q68 -9 106.5 -24t38.5 -52q0 -60 -79 -60q-18 0 -35 5q-61 18 -138 18q-61 0 -170 -20q-22 -4 -40 -4zM448 1154q-206 205 -206 232q0 20 25 32q34 16 60 16t41 -23l139 -220q8 -12 8 -21q0 -11 -9 -20.5t-23 -9.5
q-20 0 -35 14z" />
    <glyph glyph-name="eacute" unicode="&#xe9;" horiz-adv-x="758" 
d="M272 -121q-41 0 -73 19t-52 107q-33 145 -33 359q0 516 22 606t102 105t170 15q145 0 256 -44q39 -16 39 -52q0 -11 -4 -21q-17 -40 -64 -40q-14 0 -27 5q-86 33 -145 33q-37 0 -49 -23q-23 -47 -26 -407h127q171 0 171 -64q0 -26 -23 -41q-16 -10 -34 -10q-8 0 -17 2
q-46 13 -99 13h-125q0 -304 9 -423q50 4 117 4q29 0 75 -6q68 -9 106.5 -24t38.5 -52q0 -60 -79 -60q-18 0 -35 5q-61 18 -138 18q-61 0 -170 -20q-22 -4 -40 -4zM365 1140q-14 0 -23 9.5t-9 20.5q0 9 8 21l139 220q15 23 41 23t60 -16q25 -12 25 -32q0 -27 -206 -232
q-15 -14 -35 -14z" />
    <glyph glyph-name="ecircumflex" unicode="&#xea;" horiz-adv-x="758" 
d="M272 -121q-41 0 -73 19t-52 107q-33 145 -33 359q0 516 22 606t102 105t170 15q145 0 256 -44q39 -16 39 -52q0 -11 -4 -21q-17 -40 -64 -40q-14 0 -27 5q-86 33 -145 33q-37 0 -49 -23q-23 -47 -26 -407h127q171 0 171 -64q0 -26 -23 -41q-16 -10 -34 -10q-8 0 -17 2
q-46 13 -99 13h-125q0 -304 9 -423q50 4 117 4q29 0 75 -6q68 -9 106.5 -24t38.5 -52q0 -60 -79 -60q-18 0 -35 5q-61 18 -138 18q-61 0 -170 -20q-22 -4 -40 -4zM603 1140q-31 0 -179 162q-147 -162 -178 -162q-14 0 -23 9.5t-9 20.5q0 9 8 21l139 220q15 23 64 23
q48 0 63 -23l139 -220q8 -12 8 -21q0 -11 -9 -20.5t-23 -9.5z" />
    <glyph glyph-name="edieresis" unicode="&#xeb;" horiz-adv-x="758" 
d="M272 -121q-41 0 -73 19t-52 107q-33 145 -33 359q0 516 22 606t102 105t170 15q145 0 256 -44q39 -16 39 -52q0 -11 -4 -21q-17 -40 -64 -40q-14 0 -27 5q-86 33 -145 33q-37 0 -49 -23q-23 -47 -26 -407h127q171 0 171 -64q0 -26 -23 -41q-16 -10 -34 -10q-8 0 -17 2
q-46 13 -99 13h-125q0 -304 9 -423q50 4 117 4q29 0 75 -6q68 -9 106.5 -24t38.5 -52q0 -60 -79 -60q-18 0 -35 5q-61 18 -138 18q-61 0 -170 -20q-22 -4 -40 -4zM284 1140q-45 0 -77.5 32.5t-32.5 77.5q0 46 32.5 78.5t77.5 32.5q46 0 78.5 -32.5t32.5 -78.5
q0 -45 -32.5 -77.5t-78.5 -32.5zM563 1140q-45 0 -77.5 32.5t-32.5 77.5q0 46 32.5 78.5t77.5 32.5q46 0 78.5 -32.5t32.5 -78.5q0 -45 -32.5 -77.5t-78.5 -32.5z" />
    <glyph glyph-name="igrave" unicode="&#xec;" horiz-adv-x="542" 
d="M266 -23q-52 0 -92.5 29t-45.5 85q-17 184 -17 362q0 562 75 603q38 21 87 21q57 0 96 -27t39 -71q0 -18 -2 -39t-4 -48q-17 -222 -17 -430q0 -186 11 -300q3 -32 3 -59q0 -48 -35 -87t-98 -39zM284 1154q-206 205 -206 232q0 20 25 32q34 16 60 16t41 -23l139 -220
q8 -12 8 -21q0 -11 -9 -20.5t-23 -9.5q-20 0 -35 14z" />
    <glyph glyph-name="iacute" unicode="&#xed;" horiz-adv-x="542" 
d="M266 -23q-52 0 -92.5 29t-45.5 85q-17 184 -17 362q0 562 75 603q38 21 87 21q57 0 96 -27t39 -71q0 -18 -2 -39t-4 -48q-17 -222 -17 -430q0 -186 11 -300q3 -32 3 -59q0 -48 -35 -87t-98 -39zM201 1140q-14 0 -23 9.5t-9 20.5q0 9 8 21l139 220q15 23 41 23t60 -16
q25 -12 25 -32q0 -27 -206 -232q-15 -14 -35 -14z" />
    <glyph glyph-name="icircumflex" unicode="&#xee;" horiz-adv-x="542" 
d="M266 -23q-52 0 -92.5 29t-45.5 85q-17 184 -17 362q0 562 75 603q38 21 87 21q57 0 96 -27t39 -71q0 -18 -2 -39t-4 -48q-17 -222 -17 -430q0 -186 11 -300q3 -32 3 -59q0 -48 -35 -87t-98 -39zM438 1140q-31 0 -179 162q-147 -162 -178 -162q-14 0 -23 9.5t-9 20.5
q0 9 8 21l139 220q15 23 64 23q48 0 63 -23l139 -220q8 -12 8 -21q0 -11 -9 -20.5t-23 -9.5z" />
    <glyph glyph-name="idieresis" unicode="&#xef;" horiz-adv-x="542" 
d="M266 -23q-52 0 -92.5 29t-45.5 85q-17 184 -17 362q0 562 75 603q38 21 87 21q57 0 96 -27t39 -71q0 -18 -2 -39t-4 -48q-17 -222 -17 -430q0 -186 11 -300q3 -32 3 -59q0 -48 -35 -87t-98 -39zM120 1140q-45 0 -77.5 32.5t-32.5 77.5q0 46 32.5 78.5t77.5 32.5
q46 0 78.5 -32.5t32.5 -78.5q0 -45 -32.5 -77.5t-78.5 -32.5zM399 1140q-45 0 -77.5 32.5t-32.5 77.5q0 46 32.5 78.5t77.5 32.5q46 0 78.5 -32.5t32.5 -78.5q0 -45 -32.5 -77.5t-78.5 -32.5z" />
    <glyph glyph-name="eth" unicode="&#xf0;" horiz-adv-x="1129" 
d="M391 536h118q34 0 34 -34q0 -61 -34 -61h-113q3 -79 3 -160q0 -148 -16 -311q42 -30 107 -30q112 0 180 124q94 172 94 503q0 139 -48 253.5t-159 114.5q-99 0 -197 -76l8 -71q16 -124 23 -252zM122 441h-57q-34 0 -34 34q0 61 34 61h53q-9 148 -28 321q-8 68 -8 81
q0 26 15 52t43.5 33.5t56.5 7.5q90 0 119 -45q159 106 338 106q104 0 189.5 -56t126 -147t51 -175.5t10.5 -145.5q0 -173 -54 -340q-77 -236 -239 -349q-89 -62 -226 -62q-110 0 -174 42q-48 -26 -91 -26q-88 0 -124 68q-13 24 -13 53q15 174 15 350q0 65 -3 137z" />
    <glyph glyph-name="ntilde" unicode="&#xf1;" horiz-adv-x="1026" 
d="M252 1138q73 0 106 -60q12 -22 12 -46q0 -37 -5 -90q-12 -147 -12 -246q0 -238 4 -354q123 503 217 748q50 130 143 130q127 0 149 -263q28 -335 28 -651q0 -135 -9 -267q-3 -53 -63 -70q-26 -8 -50 -8q-117 0 -117 85l2 266q0 71 -11 529q-8 -26 -247 -886
q-23 -90 -116 -90q-125 0 -140 185q-27 351 -27 652q0 368 51 412q27 24 85 24zM555 1239q-33 0 -89.5 39t-81.5 39q-29 0 -72 -60q-13 -18 -23 -18q-7 0 -13 9q-15 24 -15 46q0 15 9 28q67 90 118 90q33 0 89.5 -39.5t81.5 -39.5q29 0 72 61q13 18 23 18q7 0 13 -9
q15 -25 15 -46q0 -15 -9 -28q-67 -90 -118 -90z" />
    <glyph glyph-name="ograve" unicode="&#xf2;" horiz-adv-x="978" 
d="M481 -22q-125 0 -220.5 57t-147.5 167t-52 271q0 182 52 324t157 225.5t262 83.5q194 0 282 -181q73 -148 73 -368q0 -241 -89 -398q-102 -181 -317 -181zM521 105q51 0 90 32t66.5 87t44 117.5t23 120.5t6.5 95q0 214 -72 327q-58 91 -127 91q-47 0 -94 -53
q-107 -122 -108 -442q0 -33 1.5 -81t10 -100.5t28 -97t51.5 -70.5t80 -26zM498 1154q-206 205 -206 232q0 20 25 32q34 16 60 16t41 -23l139 -220q8 -12 8 -21q0 -11 -9 -20.5t-23 -9.5q-20 0 -35 14z" />
    <glyph glyph-name="oacute" unicode="&#xf3;" horiz-adv-x="978" 
d="M481 -22q-125 0 -220.5 57t-147.5 167t-52 271q0 182 52 324t157 225.5t262 83.5q194 0 282 -181q73 -148 73 -368q0 -241 -89 -398q-102 -181 -317 -181zM521 105q51 0 90 32t66.5 87t44 117.5t23 120.5t6.5 95q0 214 -72 327q-58 91 -127 91q-47 0 -94 -53
q-107 -122 -108 -442q0 -33 1.5 -81t10 -100.5t28 -97t51.5 -70.5t80 -26zM415 1140q-14 0 -23 9.5t-9 20.5q0 9 8 21l139 220q15 23 41 23t60 -16q25 -12 25 -32q0 -27 -206 -232q-15 -14 -35 -14z" />
    <glyph glyph-name="ocircumflex" unicode="&#xf4;" horiz-adv-x="978" 
d="M481 -22q-125 0 -220.5 57t-147.5 167t-52 271q0 182 52 324t157 225.5t262 83.5q194 0 282 -181q73 -148 73 -368q0 -241 -89 -398q-102 -181 -317 -181zM521 105q51 0 90 32t66.5 87t44 117.5t23 120.5t6.5 95q0 214 -72 327q-58 91 -127 91q-47 0 -94 -53
q-107 -122 -108 -442q0 -33 1.5 -81t10 -100.5t28 -97t51.5 -70.5t80 -26zM720 1140q-31 0 -179 162q-147 -162 -178 -162q-14 0 -23 9.5t-9 20.5q0 9 8 21l139 220q15 23 64 23q48 0 63 -23l139 -220q8 -12 8 -21q0 -11 -9 -20.5t-23 -9.5z" />
    <glyph glyph-name="otilde" unicode="&#xf5;" horiz-adv-x="978" 
d="M481 -22q-125 0 -220.5 57t-147.5 167t-52 271q0 182 52 324t157 225.5t262 83.5q194 0 282 -181q73 -148 73 -368q0 -241 -89 -398q-102 -181 -317 -181zM521 105q51 0 90 32t66.5 87t44 117.5t23 120.5t6.5 95q0 214 -72 327q-58 91 -127 91q-47 0 -94 -53
q-107 -122 -108 -442q0 -33 1.5 -81t10 -100.5t28 -97t51.5 -70.5t80 -26zM606 1179q-33 0 -89.5 39t-81.5 39q-29 0 -72 -60q-13 -18 -23 -18q-7 0 -13 9q-15 24 -15 46q0 15 9 28q67 90 118 90q33 0 89.5 -39.5t81.5 -39.5q29 0 72 61q13 18 23 18q7 0 13 -9
q15 -25 15 -46q0 -15 -9 -28q-67 -90 -118 -90z" />
    <glyph glyph-name="odieresis" unicode="&#xf6;" horiz-adv-x="978" 
d="M481 -22q-125 0 -220.5 57t-147.5 167t-52 271q0 182 52 324t157 225.5t262 83.5q194 0 282 -181q73 -148 73 -368q0 -241 -89 -398q-102 -181 -317 -181zM521 105q51 0 90 32t66.5 87t44 117.5t23 120.5t6.5 95q0 214 -72 327q-58 91 -127 91q-47 0 -94 -53
q-107 -122 -108 -442q0 -33 1.5 -81t10 -100.5t28 -97t51.5 -70.5t80 -26zM334 1140q-45 0 -77.5 32.5t-32.5 77.5q0 46 32.5 78.5t77.5 32.5q46 0 78.5 -32.5t32.5 -78.5q0 -45 -32.5 -77.5t-78.5 -32.5zM613 1140q-45 0 -77.5 32.5t-32.5 77.5q0 46 32.5 78.5t77.5 32.5
q46 0 78.5 -32.5t32.5 -78.5q0 -45 -32.5 -77.5t-78.5 -32.5z" />
    <glyph glyph-name="divide" unicode="&#xf7;" 
d="M754 521h-608q-46 0 -46 34q0 61 46 61h608q46 0 46 -34q0 -61 -46 -61zM450 172q-48 0 -81.5 33.5t-33.5 81.5t33.5 81.5t81.5 33.5t81.5 -33.5t33.5 -81.5t-33.5 -81.5t-81.5 -33.5zM450 735q-48 0 -81.5 33.5t-33.5 81.5t33.5 81.5t81.5 33.5t81.5 -33.5t33.5 -81.5
t-33.5 -81.5t-81.5 -33.5z" />
    <glyph glyph-name="oslash" unicode="&#xf8;" horiz-adv-x="978" 
d="M521 105q51 0 90 32t66.5 87t44 117.5t23 120.5t6.5 95q0 177 -49 285q-84 -254 -245 -722q27 -15 64 -15zM380 225q82 263 232 731q-29 19 -60 19q-47 0 -94 -53q-107 -122 -108 -442q0 -33 2 -81q3 -103 28 -174zM347 -151q-28 0 -47 14.5t-19 27.5q0 10 32 118
q-134 54 -200 193q-52 110 -52 271q0 182 52 324t157 225.5t262 83.5q67 0 121 -22l25 77q8 26 46 26q25 0 46.5 -14t21.5 -31q0 -15 -36 -130q33 -36 58 -87q73 -148 73 -368q0 -241 -89 -398q-102 -181 -317 -181q-37 0 -71 5l-40 -116q-6 -18 -23 -18z" />
    <glyph glyph-name="ugrave" unicode="&#xf9;" horiz-adv-x="1031" 
d="M515 -4q-323 0 -396 323q-20 90 -23 159t-3 107q0 142 27 406q4 51 45.5 77t91.5 26q57 0 98 -33q36 -28 36 -74q0 -23 -4 -50q-15 -134 -15 -330q0 -484 183 -484q89 0 136 140q48 143 48 403q0 206 -11 322q-3 22 -3 45q0 61 87 61q82 0 89 -60q22 -190 22 -371
q0 -495 -230 -624q-74 -43 -178 -43zM532 1154q-206 205 -206 232q0 20 25 32q34 16 60 16t41 -23l139 -220q8 -12 8 -21q0 -11 -9 -20.5t-23 -9.5q-20 0 -35 14z" />
    <glyph glyph-name="uacute" unicode="&#xfa;" horiz-adv-x="1031" 
d="M515 -4q-323 0 -396 323q-20 90 -23 159t-3 107q0 142 27 406q4 51 45.5 77t91.5 26q57 0 98 -33q36 -28 36 -74q0 -23 -4 -50q-15 -134 -15 -330q0 -484 183 -484q89 0 136 140q48 143 48 403q0 206 -11 322q-3 22 -3 45q0 61 87 61q82 0 89 -60q22 -190 22 -371
q0 -495 -230 -624q-74 -43 -178 -43zM556 1140q-14 0 -23 9.5t-9 20.5q0 9 8 21l139 220q15 23 41 23t60 -16q25 -12 25 -32q0 -27 -206 -232q-15 -14 -35 -14z" />
    <glyph glyph-name="ucircumflex" unicode="&#xfb;" horiz-adv-x="1031" 
d="M515 -4q-323 0 -396 323q-20 90 -23 159t-3 107q0 142 27 406q4 51 45.5 77t91.5 26q57 0 98 -33q36 -28 36 -74q0 -23 -4 -50q-15 -134 -15 -330q0 -484 183 -484q89 0 136 140q48 143 48 403q0 206 -11 322q-3 22 -3 45q0 61 87 61q82 0 89 -60q22 -190 22 -371
q0 -495 -230 -624q-74 -43 -178 -43zM726 1140q-31 0 -179 162q-147 -162 -178 -162q-14 0 -23 9.5t-9 20.5q0 9 8 21l139 220q15 23 64 23q48 0 63 -23l139 -220q8 -12 8 -21q0 -11 -9 -20.5t-23 -9.5z" />
    <glyph glyph-name="udieresis" unicode="&#xfc;" horiz-adv-x="1031" 
d="M515 -4q-323 0 -396 323q-20 90 -23 159t-3 107q0 142 27 406q4 51 45.5 77t91.5 26q57 0 98 -33q36 -28 36 -74q0 -23 -4 -50q-15 -134 -15 -330q0 -484 183 -484q89 0 136 140q48 143 48 403q0 206 -11 322q-3 22 -3 45q0 61 87 61q82 0 89 -60q22 -190 22 -371
q0 -495 -230 -624q-74 -43 -178 -43zM387 1164q-45 0 -77.5 32.5t-32.5 77.5q0 46 32.5 78.5t77.5 32.5q46 0 78.5 -32.5t32.5 -78.5q0 -45 -32.5 -77.5t-78.5 -32.5zM666 1164q-45 0 -77.5 32.5t-32.5 77.5q0 46 32.5 78.5t77.5 32.5q46 0 78.5 -32.5t32.5 -78.5
q0 -45 -32.5 -77.5t-78.5 -32.5z" />
    <glyph glyph-name="yacute" unicode="&#xfd;" horiz-adv-x="1027" 
d="M435 -395q-149 0 -207 62t-58 127q0 83 66 83q81 0 81 -83q0 -77 96 -77q75 0 134.5 116t68.5 268l6 95q-56 -165 -235 -165q-243 0 -294 284q-17 97 -17 224q0 446 68 489q41 26 91 26q58 0 99 -34q37 -28 37 -78q0 -14 -7 -86q-23 -260 -23 -397q0 -301 86 -301
q32 0 66.5 48t61.5 137q52 174 52 373q0 71 -3 119q-3 22 -3 46q0 51 37.5 82t98.5 31q49 0 90.5 -26t46.5 -77l6 -76q17 -291 17 -504q0 -383 -168 -579q-115 -127 -294 -127zM494 1164q-14 0 -23 9.5t-9 20.5q0 9 8 21l139 220q15 23 41 23t60 -16q25 -12 25 -32
q0 -27 -206 -232q-15 -14 -35 -14z" />
    <glyph glyph-name="thorn" unicode="&#xfe;" horiz-adv-x="993" 
d="M406 411q38 17 89 66q85 78 128 172q13 28 22 53q30 76 30 170q0 61 -18 106q-20 48 -53 48q-62 0 -104 -63q-77 -116 -90 -375q-3 -47 -4 -177zM247 -109q-20 0 -59 10t-67 64q-13 25 -13 53q0 43 6 91q18 152 18 427q0 330 -21 741q-2 22 -2 40q0 44 37 71q41 29 98 29
q49 0 90 -23q48 -27 56 -394q114 169 283 169q105 0 166.5 -52t78.5 -115t17 -115q0 -126 -68 -259q-48 -93 -127 -171q-149 -147 -337 -171q-6 -108 -25 -279q-7 -68 -58 -96q-35 -20 -73 -20z" />
    <glyph glyph-name="ydieresis" unicode="&#xff;" horiz-adv-x="1027" 
d="M435 -395q-149 0 -207 62t-58 127q0 83 66 83q81 0 81 -83q0 -77 96 -77q75 0 134.5 116t68.5 268l6 95q-56 -165 -235 -165q-243 0 -294 284q-17 97 -17 224q0 446 68 489q41 26 91 26q58 0 99 -34q37 -28 37 -78q0 -14 -7 -86q-23 -260 -23 -397q0 -301 86 -301
q32 0 66.5 48t61.5 137q52 174 52 373q0 71 -3 119q-3 22 -3 46q0 51 37.5 82t98.5 31q49 0 90.5 -26t46.5 -77l6 -76q17 -291 17 -504q0 -383 -168 -579q-115 -127 -294 -127zM384 1194q-45 0 -77.5 32.5t-32.5 77.5q0 46 32.5 78.5t77.5 32.5q46 0 78.5 -32.5t32.5 -78.5
q0 -45 -32.5 -77.5t-78.5 -32.5zM663 1194q-45 0 -77.5 32.5t-32.5 77.5q0 46 32.5 78.5t77.5 32.5q46 0 78.5 -32.5t32.5 -78.5q0 -45 -32.5 -77.5t-78.5 -32.5z" />
    <glyph glyph-name="dotlessi" unicode="&#x131;" horiz-adv-x="542" 
d="M266 -23q-52 0 -92.5 29t-45.5 85q-17 184 -17 362q0 562 75 603q38 21 87 21q57 0 96 -27t39 -71q0 -18 -2 -39t-4 -48q-17 -222 -17 -430q0 -186 11 -300q3 -32 3 -59q0 -48 -35 -87t-98 -39z" />
    <glyph glyph-name="circumflex" unicode="&#x2c6;" horiz-adv-x="621" 
d="M489 1140q-31 0 -179 162q-147 -162 -178 -162q-14 0 -23 9.5t-9 20.5q0 9 8 21l139 220q15 23 64 23q48 0 63 -23l139 -220q8 -12 8 -21q0 -11 -9 -20.5t-23 -9.5z" />
    <glyph glyph-name="caron" unicode="&#x2c7;" horiz-adv-x="621" 
d="M311 1140q-49 0 -64 23l-139 220q-8 12 -8 21q0 11 9 20.5t23 9.5q20 0 35 -14q93 -92 143 -148q51 56 144 148q15 14 35 14q14 0 23 -9.5t9 -20.5q0 -9 -8 -21l-139 -220q-15 -23 -63 -23z" />
    <glyph glyph-name="ring" unicode="&#x2da;" horiz-adv-x="541" 
d="M270 1100q-70 0 -120 50t-50 120q0 71 50 121t120 50q71 0 121 -50t50 -121q0 -70 -50 -120t-121 -50zM270 1170q42 0 71.5 29.5t29.5 70.5q0 42 -29.5 71.5t-71.5 29.5q-41 0 -70.5 -29.5t-29.5 -71.5q0 -41 29.5 -70.5t70.5 -29.5z" />
    <glyph glyph-name="tilde" unicode="&#x2dc;" horiz-adv-x="621" 
d="M394 1140q-33 0 -89.5 39t-81.5 39q-29 0 -72 -60q-13 -18 -23 -18q-7 0 -13 9q-15 24 -15 46q0 15 9 28q67 90 118 90q33 0 89.5 -39.5t81.5 -39.5q29 0 72 61q13 18 23 18q7 0 13 -9q15 -25 15 -46q0 -15 -9 -28q-67 -90 -118 -90z" />
    <glyph glyph-name="endash" unicode="&#x2013;" horiz-adv-x="1399" 
d="M140 505q-40 0 -40 34q0 61 40 61h1119q40 0 40 -34q0 -61 -40 -61h-1119z" />
    <glyph glyph-name="emdash" unicode="&#x2014;" horiz-adv-x="1998" 
d="M140 505q-40 0 -40 34q0 61 40 61h1718q40 0 40 -34q0 -61 -40 -61h-1718z" />
    <glyph glyph-name="quoteleft" unicode="&#x2018;" horiz-adv-x="383" 
d="M165 496q-48 0 -81.5 33.5t-33.5 91.5q0 181 189 415q19 24 44 24q16 0 33 -9.5t17 -27.5q0 -16 -39 -70q-85 -117 -85 -200q0 -26 35.5 -60t35.5 -82t-34 -81.5t-81 -33.5z" />
    <glyph glyph-name="quoteright" unicode="&#x2019;" horiz-adv-x="433" 
d="M174 803q0 26 -35.5 60t-35.5 82t34 81.5t81 33.5q48 0 81.5 -33.5t33.5 -91.5q0 -181 -189 -415q-19 -24 -44 -24q-16 0 -33 9.5t-17 27.5q0 16 39 70q85 117 85 200z" />
    <glyph glyph-name="quotesinglbase" unicode="&#x201a;" horiz-adv-x="443" 
d="M110 -343q-16 0 -33 9.5t-17 27.5q0 16 39 70q85 117 85 200q0 26 -35.5 60t-35.5 82t34 81.5t81 33.5q48 0 81.5 -33.5t33.5 -91.5q0 -181 -189 -415q-19 -24 -44 -24z" />
    <glyph glyph-name="quotedblleft" unicode="&#x201c;" horiz-adv-x="779" 
d="M165 496q-48 0 -81.5 33.5t-33.5 91.5q0 181 189 415q19 24 44 24q16 0 33 -9.5t17 -27.5q0 -16 -39 -70q-85 -117 -85 -200q0 -26 35.5 -60t35.5 -82t-34 -81.5t-81 -33.5zM561 496q-48 0 -81.5 33.5t-33.5 91.5q0 181 189 415q19 24 44 24q16 0 33 -9.5t17 -27.5
q0 -16 -39 -70q-85 -117 -85 -200q0 -26 35.5 -60t35.5 -82t-34 -81.5t-81 -33.5z" />
    <glyph glyph-name="quotedblright" unicode="&#x201d;" horiz-adv-x="829" 
d="M174 803q0 26 -35.5 60t-35.5 82t34 81.5t81 33.5q48 0 81.5 -33.5t33.5 -91.5q0 -181 -189 -415q-19 -24 -44 -24q-16 0 -33 9.5t-17 27.5q0 16 39 70q85 117 85 200zM570 803q0 26 -35.5 60t-35.5 82t34 81.5t81 33.5q48 0 81.5 -33.5t33.5 -91.5q0 -181 -189 -415
q-19 -24 -44 -24q-16 0 -33 9.5t-17 27.5q0 16 39 70q85 117 85 200z" />
    <glyph glyph-name="quotedblbase" unicode="&#x201e;" horiz-adv-x="829" 
d="M174 25q0 26 -35.5 60t-35.5 82t34 81.5t81 33.5q48 0 81.5 -33.5t33.5 -91.5q0 -181 -189 -415q-19 -24 -44 -24q-16 0 -33 9.5t-17 27.5q0 16 39 70q85 117 85 200zM570 25q0 26 -35.5 60t-35.5 82t34 81.5t81 33.5q48 0 81.5 -33.5t33.5 -91.5q0 -181 -189 -415
q-19 -24 -44 -24q-16 0 -33 9.5t-17 27.5q0 16 39 70q85 117 85 200z" />
    <glyph glyph-name="dagger" unicode="&#x2020;" horiz-adv-x="1100" 
d="M691 913q-8 -194 -8 -380q0 -273 15 -440q4 -46 4 -86q0 -67 -39 -115q-43 -52 -112 -52q-58 0 -104.5 37t-52.5 114q-23 268 -23 529q0 222 6 388q-66 -4 -133 -9q-23 -2 -40 -4t-32 -2q-33 0 -52 29q-20 33 -20 78q0 40 16 72q22 44 275 56q21 236 66 263q47 29 103 29
q65 0 111 -36q43 -32 43 -91q0 -27 -3 -57t-6 -70l-2 -34q104 -4 210 -15q45 -5 66 -37.5t21 -72.5q0 -49 -30 -79q-27 -27 -66 -27q-22 0 -49 3q-67 7 -164 9z" />
    <glyph glyph-name="daggerdbl" unicode="&#x2021;" horiz-adv-x="1100" 
d="M695 1132q108 -3 218 -15q45 -5 66 -37.5t21 -72.5q0 -49 -30 -79q-27 -27 -66 -27q-22 0 -49 3q-69 7 -170 9q-2 -86 -2 -186q0 -177 7 -360q111 -3 223 -15q45 -5 66 -37.5t21 -72.5q0 -49 -30 -79q-27 -27 -66 -27q-22 0 -49 3q-63 7 -153 9q1 -27 3 -54q3 -40 6 -70
t3 -57q0 -59 -43 -91q-46 -36 -111 -36q-56 0 -103 29q-46 28 -67 275q-72 -4 -146 -10q-23 -2 -40 -4t-32 -2q-33 0 -52 29q-20 33 -20 78q0 40 16 72q21 43 261 56q-6 162 -6 377q0 83 2 168q-64 -4 -129 -9q-23 -2 -40 -4t-32 -2q-33 0 -52 29q-20 33 -20 78q0 40 16 72
q22 44 267 56q5 70 11 141q6 77 52.5 114t104.5 37q69 0 112 -52q39 -48 39 -115q0 -40 -4 -86q-2 -17 -3 -35z" />
    <glyph glyph-name="bullet" unicode="&#x2022;" horiz-adv-x="743" 
d="M371 296q-112 0 -191.5 79.5t-79.5 192.5t79.5 192.5t191.5 79.5q113 0 192.5 -79.5t79.5 -192.5t-79.5 -192.5t-192.5 -79.5z" />
    <glyph glyph-name="ellipsis" unicode="&#x2026;" horiz-adv-x="2048" 
d="M165 -9q-48 0 -81.5 33.5t-33.5 81.5t33.5 81.5t81.5 33.5t81.5 -33.5t33.5 -81.5t-33.5 -81.5t-81.5 -33.5zM848 -9q-48 0 -81.5 33.5t-33.5 81.5t33.5 81.5t81.5 33.5t81.5 -33.5t33.5 -81.5t-33.5 -81.5t-81.5 -33.5zM1531 -9q-48 0 -81.5 33.5t-33.5 81.5t33.5 81.5
t81.5 33.5t81.5 -33.5t33.5 -81.5t-33.5 -81.5t-81.5 -33.5z" />
    <glyph glyph-name="guilsinglleft" unicode="&#x2039;" horiz-adv-x="548" 
d="M396 221q-19 0 -36 18l-240 240q-20 20 -20 39q0 20 20 39l240 239q23 23 40 23q12 0 21 -9q23 -23 23 -45q0 -18 -17 -36l-212 -211l212 -212q22 -23 22 -41q0 -12 -9 -21q-23 -23 -44 -23z" />
    <glyph glyph-name="guilsinglright" unicode="&#x203a;" horiz-adv-x="548" 
d="M153 221q-21 0 -44 23q-9 9 -9 21q0 18 22 41l212 212l-212 211q-17 18 -17 36q0 22 23 45q9 9 21 9q17 0 40 -23l240 -239q20 -19 20 -39q0 -19 -20 -39l-240 -240q-17 -18 -36 -18z" />
    <glyph glyph-name="fraction" unicode="&#x2044;" horiz-adv-x="261" 
d="M-34 -34q-28 0 -47 14.5t-19 27.5q0 34 397 1270q8 26 46 26q25 0 46.5 -14t21.5 -31q0 -53 -422 -1275q-6 -18 -23 -18z" />
    <glyph glyph-name="fraction" unicode="&#x2215;" horiz-adv-x="261" 
d="M-34 -34q-28 0 -47 14.5t-19 27.5q0 34 397 1270q8 26 46 26q25 0 46.5 -14t21.5 -31q0 -53 -422 -1275q-6 -18 -23 -18z" />
    <glyph glyph-name="lira" unicode="&#x20a4;" horiz-adv-x="975" 
d="M252 713q-30 137 -30 240q0 140 71 226q86 104 274 104q136 0 222 -79t86 -203q0 -122 -71 -123q-27 0 -36.5 26t-9.5 47q0 42 -16 90t-52 82.5t-95 34.5q-70 0 -91 -65q-13 -42 -13 -121q0 -103 18 -259h245q46 0 46 -34q0 -61 -46 -61h-233q4 -23 7 -47q4 -26 6 -52
h220q46 0 46 -34q0 -61 -46 -61h-222q-16 -167 -132 -306q160 26 227 26q30 0 92 -2q156 -7 156 -98q0 -25 -12 -45q-15 -25 -43 -25q-11 0 -23 5q-48 20 -148 20l-368 -1q-73 0 -73 47q0 96 56 234q26 64 30 145h-148q-46 0 -46 34q0 61 46 61h143q-6 44 -17 99h-126
q-46 0 -46 34q0 61 46 61h106z" />
    <glyph glyph-name="Euro" unicode="&#x20ac;" horiz-adv-x="807" 
d="M168 785q4 82 20 167q15 87 47.5 162.5t87.5 123t139 47.5q158 0 232 -169q38 -86 38 -123q0 -43 -46 -53q-9 -2 -16 -2q-43 0 -53 62q-33 151 -102 151q-66 0 -98 -150q-21 -95 -29 -216h183q38 0 38 -34q0 -61 -38 -61h-186q-1 -26 -1 -54v-45h187q38 0 38 -34
q0 -61 -38 -61h-182q5 -80 17 -160q33 -228 111 -231q76 0 109 222q8 58 59 58q60 0 60 -52l-1 -16q-60 -332 -280 -332q-85 0 -140.5 47.5t-88 122.5t-48 163t-19.5 172q-1 3 -1 6h-100q-38 0 -38 34q0 61 38 61h97q-1 23 -1 44q0 25 1 55h-97q-38 0 -38 34q0 61 38 61h101
z" />
    <glyph glyph-name="uni2116" unicode="&#x2116;" horiz-adv-x="2061" 
d="M959 -268q-97 0 -162 141q-138 299 -338 892q-38 113 -48 113q-11 0 -11 -108q0 -160 12 -314q20 -235 36 -531q2 -33 5 -58.5t3 -46.5q0 -49 -42 -78t-103 -29q-53 0 -97 24q-69 38 -69 666q0 437 30 726q21 209 192 209q96 0 128 -93q265 -777 357 -1039q16 -47 28 -47
t14 58q14 305 14 567l-1 352q0 86 120 86q27 0 54 -7q60 -17 64 -73q11 -159 11 -321q0 -381 -35 -786q-13 -141 -54.5 -222t-107.5 -81zM1655 205q-100 0 -176 45.5t-118 133.5t-42 217q0 145 41.5 258.5t126 180.5t209.5 67q156 0 226 -145q58 -119 58 -294
q0 -193 -71 -318q-82 -145 -254 -145zM1690 341q37 0 65 23t48 62.5t31.5 85t16 87t4.5 67.5q0 154 -51 236q-42 66 -92 66q-34 0 -68 -39q-77 -88 -77 -335q0 -253 123 -253zM1923 -27h-4q-140 16 -272 16q-128 0 -250 -15h-7q-32 0 -32 35q0 71 39 76q122 15 250 15
q132 0 272 -16q39 -4 39 -43q0 -68 -35 -68z" />
    <glyph glyph-name="trademark" unicode="&#x2122;" horiz-adv-x="1093" 
d="M100.905 478.79q-26.1006 0 -47.0264 14.6016q-20.9258 14.6006 -23.626 45.002q-12.5996 134.408 -12.5996 333.221q0 176.811 12.1494 311.619q1.35059 13.2002 6.75098 23.2012q-85.9521 -6.7998 -150.305 -32.8018q-7.64941 -3.2002 -15.2998 -3.2002
q-18.001 0 -28.3516 12.8008q-4.0498 5.60059 -4.0498 11.2002q0 14.001 16.6504 20.8018q103.053 42.0029 249.307 42.0029q144.004 0 244.807 -36.4023q18.001 -6.40039 18.001 -20.8018q0 -5.2002 -3.60059 -10.8008q-9 -13.2002 -28.8008 -13.2002
q-7.2002 0 -14.4004 2.39941q-67.0518 23.6016 -158.854 29.2021q6.75 -12.4004 6.75 -27.2012q0 -26.8018 -3.15039 -68.0049q-7.2002 -90.8057 -7.2002 -240.015q0 -205.212 7.2002 -290.018q1.7998 -19.6016 1.7998 -39.6025q0 -26.4014 -17.5498 -45.2021
q-17.5508 -18.8018 -48.6016 -18.8018zM447.903 478.994q-26.1006 0 -46.8008 14.4004q-20.7002 14.4014 -23.8506 44.8027q-9.90039 104.007 -9.90039 200.412q0 194.412 22.0508 295.219q20.7002 96.4053 57.6016 106.006q15.75 4 36.001 4q49.9512 0 66.1514 -22.001
q18.001 -25.6016 31.9512 -69.6045q36.4512 -114.406 84.6025 -313.619q54.9014 153.609 103.053 309.219q7.2002 23.6016 27 35.8027q19.8008 12.2002 48.6016 12.2002q22.501 0 40.0518 -11.8008q17.5498 -11.7998 19.7998 -35.8018q17.5508 -186.812 17.5508 -346.021
q0 -90.0049 -3.60059 -150.809q-6.2998 -54.0039 -46.3506 -54.0039q-38.251 0 -38.251 49.6035v4.40039q4.0498 66.0039 4.0498 154.009q0 98.4062 -6.2998 196.812q-54.002 -172.411 -119.254 -341.621q-13.5 -35.2021 -36.9004 -35.2021q-13.0508 0 -24.751 11.2012
q-15.75 14.8008 -21.1504 45.2021q-38.251 214.813 -107.104 428.427q-9.89941 30.8018 -16.2002 30.8018q-6.75 0 -8.5498 -30.8018q-6.30078 -122.408 -6.30078 -204.812q0 -75.2051 5.85059 -159.21q3.15039 -41.2021 6.0752 -62.8037t2.9248 -43.2031
q0 -23.6016 -12.1504 -40.8027q-14.4004 -20.4004 -45.9014 -20.4004z" />
    <glyph glyph-name="minus" unicode="&#x2212;" 
d="M754 521h-608q-46 0 -46 34q0 61 46 61h608q46 0 46 -34q0 -61 -46 -61z" />
    <glyph glyph-name="approxequal" unicode="&#x2248;" 
d="M305 650q-48 0 -124 -79q-18 -19 -34 -19q-12 0 -22 9q-25 24 -25 46q0 15 13 29q113 109 198 109q55 0 149 -59.5t135 -59.5q48 0 124 80q18 19 34 19q12 0 22 -9q25 -25 25 -46q0 -15 -13 -29q-113 -109 -198 -109q-55 0 -149 59t-135 59zM305 437q-48 0 -124 -79
q-18 -19 -34 -19q-12 0 -22 9q-25 24 -25 46q0 15 13 29q113 109 198 109q55 0 149 -59.5t135 -59.5q48 0 124 80q18 19 34 19q12 0 22 -9q25 -25 25 -46q0 -15 -13 -29q-113 -109 -198 -109q-55 0 -149 59t-135 59z" />
    <glyph glyph-name="lessequal" unicode="&#x2264;" 
d="M766 143q-12 0 -28 6l-605 237q-33 13 -33 55q0 32 33 45l605 237q16 7 28 7q34 0 34 -51q0 -32 -33 -45l-506 -198l506 -198q33 -13 33 -45q0 -50 -34 -50zM754 0h-608q-46 0 -46 34q0 61 46 61h608q46 0 46 -34q0 -61 -46 -61z" />
    <glyph glyph-name="greaterequal" unicode="&#x2265;" 
d="M134 143q-34 0 -34 50q0 32 33 45l506 198l-506 198q-33 13 -33 45q0 51 34 51q12 0 28 -7l605 -237q33 -13 33 -45q0 -42 -33 -55l-605 -237q-16 -6 -28 -6zM754 0h-608q-46 0 -46 34q0 61 46 61h608q46 0 46 -34q0 -61 -46 -61z" />
    <glyph glyph-name="uniE00B" unicode="&#xe00b;" horiz-adv-x="1463" 
d="M1726 -454q-12 0 -23 5q-94 39 -319 39q-84 0 -177 -13.5t-177 -13.5q-61 0 -114 84.5t-63 238.5q-8 196 -8 392q0 426 37 705q20 152 87 208q39 31 106 31q33 0 62.5 -8.5t47 -41.5t17.5 -70q0 -52 -7 -106q-20 -141 -35 -468q-4 -132 -4 -264q0 -278 18 -540
q95 7 183 7q426 0 426 -119q0 -15 -6 -30q-16 -36 -51 -36zM423 -398q-58 0 -104.5 36.5t-52.5 112.5q-28 336 -28 833q0 442 27 779q3 33 15 58q-191 -17 -334 -82q-17 -8 -34 -8q-40 0 -63 32q-9 14 -9 28q0 35 37 52q229 105 554 105q320 0 544 -91q39 -16 39 -52
q0 -13 -8 -27q-19 -33 -64 -33q-15 0 -32 6q-149 59 -352 73q15 -31 15 -68q0 -67 -7 -170q-16 -227 -16 -600q0 -513 16 -725q4 -49 4 -99q0 -66 -39 -113t-108 -47z" />
    </font>
</defs>
</svg>
